# Blender v2.90.0 OBJ File: 'Cube21_B.blend'
# www.blender.org
mtllib Cube21_B.mtl
o Rubiks_Cube_Cube.026
v -2.898658 -1.100142 0.998343
v -2.898658 -2.897457 0.998343
v -1.101342 -2.897457 0.998343
v -1.101342 -1.100142 0.998343
v -3.000000 -1.100142 -0.000000
v -3.000000 -2.897457 -0.000000
v -3.000000 -2.897457 0.897001
v -3.000000 -1.100142 0.897001
v -2.898658 -2.998799 -0.000000
v -1.101342 -2.998799 -0.000000
v -1.101342 -2.998799 0.897001
v -2.898658 -2.998799 0.897001
v -1.101342 -0.998799 0.897001
v -1.101342 -1.012338 0.947605
v -1.052879 -1.025490 0.945464
v -1.050738 -1.012338 0.897001
v -1.101342 -1.049537 0.984804
v -1.052879 -1.051679 0.971653
v -1.050738 -1.100142 0.984804
v -1.013539 -1.100142 0.947605
v -1.026690 -1.051679 0.945464
v -1.000000 -1.100142 0.897001
v -1.013539 -1.049537 0.897001
v -1.101342 -2.948061 0.984803
v -1.052879 -2.945920 0.971653
v -1.050738 -2.897457 0.984803
v -1.101342 -2.985260 0.947605
v -1.052879 -2.972109 0.945464
v -1.050738 -2.985260 0.897001
v -1.013539 -2.948061 0.897001
v -1.026690 -2.945920 0.945464
v -1.000000 -2.897457 0.897001
v -1.013539 -2.897457 0.947605
v -2.898658 -0.998799 0.897001
v -2.949262 -1.012338 0.897001
v -2.947121 -1.025490 0.945464
v -2.898658 -1.012338 0.947605
v -2.986461 -1.049537 0.897001
v -2.973310 -1.051679 0.945464
v -2.986461 -1.100142 0.947605
v -2.949262 -1.100142 0.984804
v -2.947121 -1.051679 0.971653
v -2.898658 -1.049537 0.984804
v -2.898658 -2.985260 0.947605
v -2.947121 -2.972109 0.945464
v -2.949262 -2.985260 0.897001
v -2.898658 -2.948061 0.984803
v -2.947121 -2.945920 0.971653
v -2.949262 -2.897457 0.984803
v -2.986461 -2.897457 0.947605
v -2.973310 -2.945920 0.945464
v -2.986461 -2.948061 0.897001
v -1.101342 -0.998799 -0.000000
v -1.050738 -1.012338 -0.000000
v -1.013539 -1.049537 -0.000000
v -1.000000 -1.100142 -0.000000
v -2.949262 -2.985260 -0.000000
v -2.986461 -2.948061 -0.000000
v -2.898658 -0.998799 -0.000000
v -2.986461 -1.049537 -0.000000
v -2.949262 -1.012338 -0.000000
v -1.013539 -2.948061 -0.000000
v -1.000000 -2.897457 -0.000000
v -1.050738 -2.985260 -0.000000
v -2.898658 -1.100142 -0.998343
v -1.101342 -1.100142 -0.998343
v -1.101342 -2.897457 -0.998343
v -2.898658 -2.897457 -0.998343
v -3.000000 -1.100142 -0.897001
v -3.000000 -2.897457 -0.897002
v -2.898658 -2.998799 -0.897002
v -1.101342 -2.998799 -0.897002
v -1.101342 -0.998799 -0.897001
v -1.050738 -1.012338 -0.897001
v -1.052879 -1.025490 -0.945464
v -1.101342 -1.012338 -0.947605
v -1.052879 -1.051679 -0.971653
v -1.101342 -1.049537 -0.984804
v -1.050738 -1.100142 -0.984804
v -1.026690 -1.051679 -0.945464
v -1.013539 -1.100142 -0.947605
v -1.000000 -1.100142 -0.897001
v -1.013539 -1.049537 -0.897001
v -1.050738 -2.897457 -0.984804
v -1.052879 -2.945920 -0.971653
v -1.101342 -2.948061 -0.984804
v -1.052879 -2.972109 -0.945464
v -1.101342 -2.985260 -0.947605
v -1.050738 -2.985260 -0.897002
v -1.026690 -2.945920 -0.945464
v -1.013539 -2.948061 -0.897002
v -1.000000 -2.897457 -0.897002
v -1.013539 -2.897457 -0.947605
v -2.898658 -0.998799 -0.897001
v -2.898658 -1.012338 -0.947605
v -2.947121 -1.025490 -0.945464
v -2.949262 -1.012338 -0.897001
v -2.973310 -1.051679 -0.945464
v -2.986461 -1.049537 -0.897001
v -2.986461 -1.100142 -0.947605
v -2.947121 -1.051679 -0.971653
v -2.949262 -1.100142 -0.984804
v -2.898658 -1.049537 -0.984804
v -2.949262 -2.985260 -0.897002
v -2.947121 -2.972109 -0.945464
v -2.898658 -2.985260 -0.947605
v -2.947121 -2.945920 -0.971653
v -2.898658 -2.948061 -0.984804
v -2.949262 -2.897457 -0.984804
v -2.973310 -2.945920 -0.945464
v -2.986461 -2.897457 -0.947605
v -2.986461 -2.948061 -0.897002
vt 0.671950 0.503095
vt 0.682199 0.513344
vt 0.671950 0.513344
vt 0.171485 0.082700
vt 0.213044 0.165971
vt 0.171485 0.165971
vt 0.786331 0.196093
vt 0.703060 0.237652
vt 0.703060 0.196093
vt 0.682199 0.513845
vt 0.682488 0.513845
vt 0.682199 0.513922
vt 0.682199 0.513633
vt 0.682476 0.513770
vt 0.682488 0.513344
vt 0.682625 0.513621
vt 0.682476 0.513621
vt 0.682700 0.513633
vt 0.682700 0.513344
vt 0.682777 0.513344
vt 0.682199 0.502807
vt 0.682488 0.503095
vt 0.682199 0.503095
vt 0.682476 0.502670
vt 0.682476 0.502819
vt 0.682488 0.502595
vt 0.682199 0.502595
vt 0.682199 0.502517
vt 0.682700 0.502807
vt 0.682700 0.503095
vt 0.682777 0.503095
vt 0.682625 0.502819
vt 0.671661 0.513845
vt 0.671950 0.513845
vt 0.671950 0.513922
vt 0.671449 0.513633
vt 0.671674 0.513770
vt 0.671449 0.513344
vt 0.671372 0.513344
vt 0.671674 0.513621
vt 0.671524 0.513621
vt 0.671950 0.513633
vt 0.671661 0.513344
vt 0.671950 0.502595
vt 0.671661 0.502595
vt 0.671950 0.502517
vt 0.671950 0.502807
vt 0.671674 0.502670
vt 0.671661 0.503095
vt 0.671524 0.502819
vt 0.671674 0.502819
vt 0.671449 0.502807
vt 0.671449 0.503095
vt 0.671372 0.503095
vt 0.682488 0.513845
vt 0.682199 0.513922
vt 0.682700 0.513633
vt 0.682777 0.513344
vt 0.671661 0.502595
vt 0.671950 0.502517
vt 0.671449 0.502807
vt 0.671372 0.503095
vt 0.671950 0.513922
vt 0.671449 0.513633
vt 0.671661 0.513845
vt 0.682700 0.502807
vt 0.682488 0.502595
vt 0.682199 0.502517
vt 0.682199 0.513344
vt 0.671950 0.503095
vt 0.671950 0.513344
vt 0.129927 0.165971
vt 0.703060 0.154534
vt 0.682488 0.513845
vt 0.682199 0.513845
vt 0.682199 0.513922
vt 0.682476 0.513770
vt 0.682199 0.513633
vt 0.682488 0.513344
vt 0.682625 0.513621
vt 0.682700 0.513344
vt 0.682700 0.513633
vt 0.682777 0.513344
vt 0.682476 0.513621
vt 0.682488 0.503095
vt 0.682199 0.502807
vt 0.682199 0.503095
vt 0.682476 0.502819
vt 0.682199 0.502595
vt 0.682488 0.502595
vt 0.682199 0.502517
vt 0.682625 0.502819
vt 0.682700 0.502807
vt 0.682700 0.503095
vt 0.682777 0.503095
vt 0.682476 0.502670
vt 0.671950 0.513845
vt 0.671661 0.513845
vt 0.671950 0.513922
vt 0.671674 0.513770
vt 0.671449 0.513633
vt 0.671449 0.513344
vt 0.671372 0.513344
vt 0.671674 0.513621
vt 0.671661 0.513344
vt 0.671950 0.513633
vt 0.671524 0.513621
vt 0.671661 0.502595
vt 0.671950 0.502595
vt 0.671950 0.502517
vt 0.671674 0.502670
vt 0.671950 0.502807
vt 0.671661 0.503095
vt 0.671524 0.502819
vt 0.671449 0.503095
vt 0.671449 0.502807
vt 0.671372 0.503095
vt 0.671674 0.502819
vt 0.682777 0.503095
vt 0.213044 0.082700
vt 0.786331 0.237652
vt 0.671372 0.513344
vt 0.129927 0.082700
vt 0.786331 0.154534
vn -0.1280 -0.1280 0.9835
vn 0.1280 0.1280 0.9835
vn -0.1280 0.1280 0.9835
vn -0.9915 -0.1303 -0.0000
vn -0.9835 0.1280 0.1280
vn -0.9915 0.1303 0.0000
vn 0.1303 -0.9915 -0.0000
vn -0.1280 -0.9835 0.1280
vn -0.1303 -0.9915 -0.0000
vn 0.1216 0.8623 0.4916
vn 0.4916 0.8623 0.1216
vn 0.1280 0.9835 0.1280
vn 0.1216 0.4916 0.8623
vn 0.4488 0.7727 0.4488
vn 0.4916 0.1216 0.8623
vn 0.7727 0.4488 0.4488
vn 0.4488 0.4488 0.7727
vn 0.8623 0.4916 0.1216
vn 0.8623 0.1216 0.4916
vn 0.9835 0.1280 0.1280
vn 0.1216 -0.4916 0.8623
vn 0.4916 -0.1216 0.8623
vn 0.1280 -0.1280 0.9835
vn 0.4488 -0.7727 0.4488
vn 0.4488 -0.4488 0.7727
vn 0.4916 -0.8623 0.1216
vn 0.1216 -0.8623 0.4916
vn 0.1280 -0.9835 0.1280
vn 0.8623 -0.4916 0.1216
vn 0.8623 -0.1216 0.4916
vn 0.9835 -0.1280 0.1280
vn 0.7727 -0.4488 0.4488
vn -0.4916 0.8623 0.1216
vn -0.1216 0.8623 0.4916
vn -0.1280 0.9835 0.1280
vn -0.8623 0.4916 0.1216
vn -0.4488 0.7727 0.4488
vn -0.8623 0.1216 0.4916
vn -0.4488 0.4488 0.7727
vn -0.7727 0.4488 0.4488
vn -0.1216 0.4916 0.8623
vn -0.4916 0.1216 0.8623
vn -0.1216 -0.8623 0.4916
vn -0.4916 -0.8623 0.1216
vn -0.1216 -0.4916 0.8623
vn -0.4488 -0.7727 0.4488
vn -0.4916 -0.1216 0.8623
vn -0.7727 -0.4488 0.4488
vn -0.4488 -0.4488 0.7727
vn -0.8623 -0.4916 0.1216
vn -0.8623 -0.1216 0.4916
vn -0.9835 -0.1280 0.1280
vn 0.4998 0.8661 0.0000
vn 0.1303 0.9915 0.0000
vn 0.8661 0.4998 0.0000
vn 0.9915 0.1303 0.0000
vn -0.4998 -0.8661 -0.0000
vn -0.8661 -0.4998 -0.0000
vn -0.1303 0.9915 0.0000
vn -0.8661 0.4998 0.0000
vn -0.4998 0.8661 0.0000
vn 0.8661 -0.4998 -0.0000
vn 0.4998 -0.8661 -0.0000
vn 0.1280 0.1280 -0.9835
vn -0.1280 -0.1280 -0.9835
vn -0.1280 0.1280 -0.9835
vn -0.9835 0.1280 -0.1280
vn -0.1280 -0.9835 -0.1280
vn 0.4916 0.8623 -0.1216
vn 0.1216 0.8623 -0.4916
vn 0.1280 0.9835 -0.1280
vn 0.4488 0.7727 -0.4488
vn 0.1216 0.4916 -0.8623
vn 0.4916 0.1216 -0.8623
vn 0.7727 0.4488 -0.4488
vn 0.8623 0.1216 -0.4916
vn 0.8623 0.4916 -0.1216
vn 0.9835 0.1280 -0.1280
vn 0.4488 0.4488 -0.7727
vn 0.4916 -0.1216 -0.8623
vn 0.1216 -0.4916 -0.8623
vn 0.1280 -0.1280 -0.9835
vn 0.4488 -0.4488 -0.7727
vn 0.1216 -0.8623 -0.4916
vn 0.4916 -0.8623 -0.1216
vn 0.1280 -0.9835 -0.1280
vn 0.7727 -0.4488 -0.4488
vn 0.8623 -0.4916 -0.1216
vn 0.8623 -0.1216 -0.4916
vn 0.9835 -0.1280 -0.1280
vn 0.4488 -0.7727 -0.4488
vn -0.1216 0.8623 -0.4916
vn -0.4916 0.8623 -0.1216
vn -0.1280 0.9835 -0.1280
vn -0.4488 0.7727 -0.4488
vn -0.8623 0.4916 -0.1216
vn -0.8623 0.1216 -0.4916
vn -0.4488 0.4488 -0.7727
vn -0.4916 0.1216 -0.8623
vn -0.1216 0.4916 -0.8623
vn -0.7727 0.4488 -0.4488
vn -0.4916 -0.8623 -0.1216
vn -0.1216 -0.8623 -0.4916
vn -0.4488 -0.7727 -0.4488
vn -0.1216 -0.4916 -0.8623
vn -0.4916 -0.1216 -0.8623
vn -0.7727 -0.4488 -0.4488
vn -0.8623 -0.1216 -0.4916
vn -0.8623 -0.4916 -0.1216
vn -0.9835 -0.1280 -0.1280
vn -0.4488 -0.4488 -0.7727
vn 0.9915 -0.1303 0.0000
usemtl Rubiks_Cube
s 1
f 2/1/1 4/2/2 1/3/3
f 6/4/4 8/5/5 5/6/6
f 10/7/7 12/8/8 9/9/9
f 14/10/10 16/11/11 13/12/12
f 17/13/13 15/14/14 14/10/10
f 19/15/15 17/13/13 4/2/2
f 19/15/15 21/16/16 18/17/17
f 23/18/18 20/19/19 22/20/20
f 23/18/18 15/14/14 21/16/16
f 15/14/14 18/17/17 21/16/16
f 24/21/21 26/22/22 3/23/23
f 24/21/21 28/24/24 25/25/25
f 29/26/26 27/27/27 11/28/28
f 30/29/29 28/24/24 29/26/26
f 33/30/30 30/29/29 32/31/31
f 26/22/22 31/32/32 33/30/30
f 25/25/25 28/24/24 31/32/32
f 35/33/33 37/34/34 34/35/35
f 38/36/36 36/37/37 35/33/33
f 40/38/38 38/36/36 8/39/5
f 40/38/38 42/40/39 39/41/40
f 43/42/41 41/43/42 1/3/3
f 43/42/41 36/37/37 42/40/39
f 36/37/37 39/41/40 42/40/39
f 44/44/43 46/45/44 12/46/8
f 47/47/45 45/48/46 44/44/43
f 49/49/47 47/47/45 2/1/1
f 49/49/47 51/50/48 48/51/49
f 52/52/50 50/53/51 7/54/52
f 46/45/44 51/50/48 52/52/50
f 45/48/46 48/51/49 51/50/48
f 13/12/12 54/55/53 53/56/54
f 16/11/11 55/57/55 54/55/53
f 23/18/18 56/58/56 55/57/55
f 3/23/23 19/15/15 4/2/2
f 26/22/22 20/19/19 19/15/15
f 33/30/30 22/20/20 20/19/19
f 12/46/8 57/59/57 9/60/9
f 46/45/44 58/61/58 57/59/57
f 52/52/50 6/62/4 58/61/58
f 1/3/3 49/49/47 2/1/1
f 49/49/47 40/38/38 50/53/51
f 40/38/38 7/54/52 50/53/51
f 34/35/35 14/10/10 13/12/12
f 37/34/34 17/13/13 14/10/10
f 43/42/41 4/2/2 17/13/13
f 11/28/28 44/44/43 12/46/8
f 27/27/27 47/47/45 44/44/43
f 24/21/21 2/1/1 47/47/45
f 59/63/59 13/12/12 53/56/54
f 60/64/60 8/39/5 38/36/36
f 61/65/61 38/36/36 35/33/33
f 59/63/59 35/33/33 34/35/35
f 62/66/62 32/31/31 30/29/29
f 64/67/63 30/29/29 29/26/26
f 10/68/7 29/26/26 11/28/28
f 32/31/31 56/58/56 22/20/20
f 66/69/64 68/70/65 65/71/66
f 69/72/67 6/4/4 5/6/6
f 71/73/68 10/7/7 9/9/9
f 74/74/69 76/75/70 73/76/71
f 75/77/72 78/78/73 76/75/70
f 78/78/73 79/79/74 66/69/64
f 79/79/74 80/80/75 81/81/76
f 81/81/76 83/82/77 82/83/78
f 83/82/77 75/77/72 74/74/69
f 75/77/72 80/80/75 77/84/79
f 84/85/80 86/86/81 67/87/82
f 85/88/83 88/89/84 86/86/81
f 88/89/84 89/90/85 72/91/86
f 89/90/85 90/92/87 91/93/88
f 91/93/88 93/94/89 92/95/90
f 93/94/89 85/88/83 84/85/80
f 85/88/83 90/92/87 87/96/91
f 95/97/92 97/98/93 94/99/94
f 96/100/95 99/101/96 97/98/93
f 99/101/96 100/102/97 69/103/67
f 100/102/97 101/104/98 102/105/99
f 102/105/99 103/106/100 65/71/66
f 103/106/100 96/100/95 95/97/92
f 96/100/95 101/104/98 98/107/101
f 104/108/102 106/109/103 71/110/68
f 105/111/104 108/112/105 106/109/103
f 108/112/105 109/113/106 68/70/65
f 109/113/106 110/114/107 111/115/108
f 111/115/108 112/116/109 70/117/110
f 110/114/107 104/108/102 112/116/109
f 105/111/104 110/114/107 107/118/111
f 54/55/53 73/76/71 53/56/54
f 55/57/55 74/74/69 54/55/53
f 56/58/56 83/82/77 55/57/55
f 79/79/74 67/87/82 66/69/64
f 81/81/76 84/85/80 79/79/74
f 82/83/78 93/94/89 81/81/76
f 57/59/57 71/110/68 9/60/9
f 58/61/58 104/108/102 57/59/57
f 6/62/4 112/116/109 58/61/58
f 109/113/106 65/71/66 68/70/65
f 111/115/108 102/105/99 109/113/106
f 111/115/108 69/103/67 100/102/97
f 76/75/70 94/99/94 73/76/71
f 78/78/73 95/97/92 76/75/70
f 66/69/64 103/106/100 78/78/73
f 106/109/103 72/91/86 71/110/68
f 108/112/105 88/89/84 106/109/103
f 68/70/65 86/86/81 108/112/105
f 73/76/71 59/63/59 53/56/54
f 69/103/67 60/64/60 99/101/96
f 99/101/96 61/65/61 97/98/93
f 97/98/93 59/63/59 94/99/94
f 92/95/90 62/66/62 91/93/88
f 91/93/88 64/67/63 89/90/85
f 89/90/85 10/68/7 72/91/86
f 82/83/78 63/119/112 92/95/90
f 2/1/1 3/23/23 4/2/2
f 6/4/4 7/120/52 8/5/5
f 10/7/7 11/121/28 12/8/8
f 14/10/10 15/14/14 16/11/11
f 17/13/13 18/17/17 15/14/14
f 19/15/15 18/17/17 17/13/13
f 19/15/15 20/19/19 21/16/16
f 23/18/18 21/16/16 20/19/19
f 23/18/18 16/11/11 15/14/14
f 24/21/21 25/25/25 26/22/22
f 24/21/21 27/27/27 28/24/24
f 29/26/26 28/24/24 27/27/27
f 30/29/29 31/32/32 28/24/24
f 33/30/30 31/32/32 30/29/29
f 26/22/22 25/25/25 31/32/32
f 35/33/33 36/37/37 37/34/34
f 38/36/36 39/41/40 36/37/37
f 40/38/38 39/41/40 38/36/36
f 40/38/38 41/43/42 42/40/39
f 43/42/41 42/40/39 41/43/42
f 43/42/41 37/34/34 36/37/37
f 44/44/43 45/48/46 46/45/44
f 47/47/45 48/51/49 45/48/46
f 49/49/47 48/51/49 47/47/45
f 49/49/47 50/53/51 51/50/48
f 52/52/50 51/50/48 50/53/51
f 46/45/44 45/48/46 51/50/48
f 13/12/12 16/11/11 54/55/53
f 16/11/11 23/18/18 55/57/55
f 23/18/18 22/20/20 56/58/56
f 3/23/23 26/22/22 19/15/15
f 26/22/22 33/30/30 20/19/19
f 33/30/30 32/31/31 22/20/20
f 12/46/8 46/45/44 57/59/57
f 46/45/44 52/52/50 58/61/58
f 52/52/50 7/54/52 6/62/4
f 1/3/3 41/43/42 49/49/47
f 49/49/47 41/43/42 40/38/38
f 40/38/38 8/39/5 7/54/52
f 34/35/35 37/34/34 14/10/10
f 37/34/34 43/42/41 17/13/13
f 43/42/41 1/3/3 4/2/2
f 11/28/28 27/27/27 44/44/43
f 27/27/27 24/21/21 47/47/45
f 24/21/21 3/23/23 2/1/1
f 59/63/59 34/35/35 13/12/12
f 60/64/60 5/122/6 8/39/5
f 61/65/61 60/64/60 38/36/36
f 59/63/59 61/65/61 35/33/33
f 62/66/62 63/119/112 32/31/31
f 64/67/63 62/66/62 30/29/29
f 10/68/7 64/67/63 29/26/26
f 32/31/31 63/119/112 56/58/56
f 66/69/64 67/87/82 68/70/65
f 69/72/67 70/123/110 6/4/4
f 71/73/68 72/124/86 10/7/7
f 74/74/69 75/77/72 76/75/70
f 75/77/72 77/84/79 78/78/73
f 78/78/73 77/84/79 79/79/74
f 79/79/74 77/84/79 80/80/75
f 81/81/76 80/80/75 83/82/77
f 83/82/77 80/80/75 75/77/72
f 84/85/80 85/88/83 86/86/81
f 85/88/83 87/96/91 88/89/84
f 88/89/84 87/96/91 89/90/85
f 89/90/85 87/96/91 90/92/87
f 91/93/88 90/92/87 93/94/89
f 93/94/89 90/92/87 85/88/83
f 95/97/92 96/100/95 97/98/93
f 96/100/95 98/107/101 99/101/96
f 99/101/96 98/107/101 100/102/97
f 100/102/97 98/107/101 101/104/98
f 102/105/99 101/104/98 103/106/100
f 103/106/100 101/104/98 96/100/95
f 104/108/102 105/111/104 106/109/103
f 105/111/104 107/118/111 108/112/105
f 108/112/105 107/118/111 109/113/106
f 109/113/106 107/118/111 110/114/107
f 111/115/108 110/114/107 112/116/109
f 110/114/107 105/111/104 104/108/102
f 54/55/53 74/74/69 73/76/71
f 55/57/55 83/82/77 74/74/69
f 56/58/56 82/83/78 83/82/77
f 79/79/74 84/85/80 67/87/82
f 81/81/76 93/94/89 84/85/80
f 82/83/78 92/95/90 93/94/89
f 57/59/57 104/108/102 71/110/68
f 58/61/58 112/116/109 104/108/102
f 6/62/4 70/117/110 112/116/109
f 109/113/106 102/105/99 65/71/66
f 111/115/108 100/102/97 102/105/99
f 111/115/108 70/117/110 69/103/67
f 76/75/70 95/97/92 94/99/94
f 78/78/73 103/106/100 95/97/92
f 66/69/64 65/71/66 103/106/100
f 106/109/103 88/89/84 72/91/86
f 108/112/105 86/86/81 88/89/84
f 68/70/65 67/87/82 86/86/81
f 73/76/71 94/99/94 59/63/59
f 69/103/67 5/122/6 60/64/60
f 99/101/96 60/64/60 61/65/61
f 97/98/93 61/65/61 59/63/59
f 92/95/90 63/119/112 62/66/62
f 91/93/88 62/66/62 64/67/63
f 89/90/85 64/67/63 10/68/7
f 82/83/78 56/58/56 63/119/112
