# Blender v2.90.0 OBJ File: 'Cube01_M.blend'
# www.blender.org
mtllib Cube01_M.mtl
o Rubiks_Cube_Cube.012
v 2.898658 0.897260 0.998343
v 2.898658 -0.000000 0.998343
v 2.949262 -0.000000 0.984804
v 2.949262 0.897260 0.984804
v 1.050738 0.985064 0.897001
v 1.050738 0.985064 0.000000
v 1.013539 0.947865 0.000000
v 1.013539 0.947865 0.897001
v 2.986461 0.897260 0.947605
v 2.986461 -0.000000 0.947605
v 3.000000 -0.000000 0.897001
v 3.000000 0.897260 0.897001
v 1.000000 0.897260 0.000000
v 1.000000 0.897260 0.897001
v 1.000000 -0.000000 0.897001
v 1.000000 0.000000 0.000000
v 2.898658 0.947865 0.984804
v 1.101342 0.947865 0.984804
v 1.101342 0.897260 0.998343
v 2.949262 0.985064 0.000000
v 2.949262 0.985064 0.897001
v 2.986461 0.947865 0.897001
v 2.986461 0.947865 0.000000
v 2.947121 0.971912 0.945464
v 2.947121 0.945723 0.971653
v 2.973310 0.945723 0.945464
v 1.050738 -0.000000 0.984804
v 1.050738 0.897260 0.984804
v 1.013539 0.897260 0.947605
v 1.013539 -0.000000 0.947605
v 2.898658 0.985064 0.947605
v 1.101342 -0.000000 0.998343
v 3.000000 0.897260 0.000000
v 1.101342 0.985064 0.947605
v 2.898658 0.998603 0.000000
v 2.898658 0.998603 0.897001
v 1.101342 0.998603 0.897001
v 1.052879 0.971912 0.945464
v 1.052879 0.945723 0.971653
v 1.026690 0.945723 0.945464
v 1.101342 0.998603 0.000000
v 3.000000 0.000000 0.000000
v 2.898658 0.897260 -0.998343
v 2.949262 0.897260 -0.984804
v 2.949262 0.000000 -0.984804
v 2.898658 0.000000 -0.998343
v 1.050738 0.985064 -0.897001
v 1.013539 0.947865 -0.897001
v 2.986461 0.897260 -0.947605
v 3.000000 0.897260 -0.897001
v 3.000000 0.000000 -0.897001
v 2.986461 0.000000 -0.947605
v 1.000000 0.897260 -0.897001
v 1.000000 0.000000 -0.897001
v 2.898658 0.947865 -0.984804
v 1.101342 0.897260 -0.998343
v 1.101342 0.947865 -0.984804
v 2.986461 0.947865 -0.897001
v 2.949262 0.985064 -0.897001
v 2.947121 0.971912 -0.945464
v 2.973310 0.945723 -0.945464
v 2.947121 0.945723 -0.971653
v 1.050738 0.000000 -0.984804
v 1.013539 0.000000 -0.947605
v 1.013539 0.897260 -0.947605
v 1.050738 0.897260 -0.984804
v 2.898658 0.985064 -0.947605
v 1.101342 0.000000 -0.998343
v 1.101342 0.985064 -0.947605
v 2.898658 0.998603 -0.897001
v 1.101342 0.998603 -0.897001
v 1.052879 0.971912 -0.945464
v 1.026690 0.945723 -0.945464
v 1.052879 0.945723 -0.971653
v 2.898658 -0.897260 0.998343
v 2.949262 -0.897260 0.984804
v 1.050738 -0.985064 0.897001
v 1.013539 -0.947865 0.897001
v 1.013539 -0.947865 -0.000000
v 1.050738 -0.985064 -0.000000
v 2.986461 -0.897260 0.947605
v 3.000000 -0.897260 0.897001
v 1.000000 -0.897260 0.897001
v 1.000000 -0.897260 -0.000000
v 2.898658 -0.947865 0.984804
v 1.101342 -0.897260 0.998343
v 1.101342 -0.947865 0.984804
v 2.949262 -0.985064 -0.000000
v 2.986461 -0.947865 -0.000000
v 2.986461 -0.947865 0.897001
v 2.949262 -0.985064 0.897001
v 2.947121 -0.971912 0.945464
v 2.973310 -0.945723 0.945464
v 2.947121 -0.945723 0.971653
v 1.013539 -0.897260 0.947605
v 1.050738 -0.897260 0.984804
v 2.898658 -0.985064 0.947605
v 3.000000 -0.897260 -0.000000
v 1.101342 -0.985064 0.947605
v 2.898658 -0.998603 -0.000000
v 2.898658 -0.998603 0.897001
v 1.101342 -0.998603 0.897001
v 1.052879 -0.971912 0.945464
v 1.026690 -0.945723 0.945464
v 1.052879 -0.945723 0.971653
v 1.101342 -0.998603 -0.000000
v 2.898658 -0.897260 -0.998343
v 2.949262 -0.897260 -0.984804
v 1.050738 -0.985064 -0.897001
v 1.013539 -0.947865 -0.897001
v 2.986461 -0.897260 -0.947605
v 3.000000 -0.897260 -0.897001
v 1.000000 -0.897260 -0.897001
v 2.898658 -0.947865 -0.984804
v 1.101342 -0.947865 -0.984804
v 1.101342 -0.897260 -0.998343
v 2.949262 -0.985064 -0.897001
v 2.986461 -0.947865 -0.897001
v 2.947121 -0.971912 -0.945464
v 2.947121 -0.945723 -0.971653
v 2.973310 -0.945723 -0.945464
v 1.050738 -0.897260 -0.984804
v 1.013539 -0.897260 -0.947605
v 2.898658 -0.985064 -0.947605
v 1.101342 -0.985064 -0.947605
v 2.898658 -0.998603 -0.897001
v 1.101342 -0.998603 -0.897001
v 1.052879 -0.971912 -0.945464
v 1.052879 -0.945723 -0.971653
v 1.026690 -0.945723 -0.945464
vt 0.705009 0.519618
vt 0.705297 0.524735
vt 0.705009 0.524735
vt 0.694471 0.525235
vt 0.694259 0.525023
vt 0.694471 0.525235
vt 0.705510 0.519618
vt 0.705587 0.524735
vt 0.705510 0.524735
vt 0.694259 0.525023
vt 0.694182 0.524735
vt 0.694182 0.519618
vt 0.694182 0.519618
vt 0.694760 0.525023
vt 0.705009 0.525023
vt 0.705297 0.525235
vt 0.705510 0.525023
vt 0.705297 0.525235
vt 0.705285 0.525160
vt 0.705285 0.525011
vt 0.705435 0.525011
vt 0.694471 0.524735
vt 0.694259 0.519618
vt 0.694471 0.519618
vt 0.705510 0.525023
vt 0.705009 0.525235
vt 0.694760 0.524735
vt 0.694760 0.519618
vt 0.705587 0.524735
vt 0.694760 0.525235
vt 0.694259 0.524735
vt 0.705009 0.525312
vt 0.705009 0.525312
vt 0.694760 0.525312
vt 0.694334 0.525011
vt 0.694760 0.525312
vt 0.694483 0.525011
vt 0.694483 0.525160
vt 0.511074 0.883551
vt 0.469515 0.841981
vt 0.511074 0.841981
vt 0.705297 0.519618
vt 0.705297 0.524735
vt 0.705009 0.519618
vt 0.705009 0.524735
vt 0.694259 0.525023
vt 0.694471 0.525235
vt 0.705587 0.524735
vt 0.705510 0.519618
vt 0.705510 0.524735
vt 0.694182 0.524735
vt 0.694182 0.519618
vt 0.694760 0.525023
vt 0.705009 0.525023
vt 0.705297 0.525235
vt 0.705285 0.525160
vt 0.705435 0.525011
vt 0.705285 0.525011
vt 0.694259 0.519618
vt 0.694471 0.524735
vt 0.694471 0.519618
vt 0.705510 0.525023
vt 0.705009 0.525235
vt 0.694760 0.524735
vt 0.694760 0.519618
vt 0.694760 0.525235
vt 0.694259 0.524735
vt 0.705009 0.525312
vt 0.694760 0.525312
vt 0.694334 0.525011
vt 0.694483 0.525011
vt 0.694483 0.525160
vt 0.552632 0.841981
vt 0.705297 0.519618
vt 0.705297 0.514501
vt 0.705009 0.514501
vt 0.694259 0.514213
vt 0.694471 0.514001
vt 0.694471 0.514001
vt 0.705587 0.514501
vt 0.705510 0.514501
vt 0.694182 0.514501
vt 0.694259 0.514213
vt 0.694760 0.514213
vt 0.705009 0.514213
vt 0.705510 0.514213
vt 0.705297 0.514001
vt 0.705297 0.514001
vt 0.705285 0.514076
vt 0.705435 0.514225
vt 0.705285 0.514225
vt 0.694471 0.514501
vt 0.705510 0.514213
vt 0.705009 0.514001
vt 0.694760 0.514501
vt 0.705587 0.514501
vt 0.694760 0.514001
vt 0.694259 0.514501
vt 0.705009 0.513923
vt 0.705009 0.513923
vt 0.694760 0.513923
vt 0.694334 0.514225
vt 0.694760 0.513923
vt 0.694483 0.514225
vt 0.694483 0.514076
vt 0.511074 0.800410
vt 0.705297 0.514501
vt 0.705009 0.514501
vt 0.694259 0.514213
vt 0.694471 0.514001
vt 0.705587 0.514501
vt 0.705510 0.514501
vt 0.694182 0.514501
vt 0.694760 0.514213
vt 0.705009 0.514213
vt 0.705297 0.514001
vt 0.705285 0.514076
vt 0.705285 0.514225
vt 0.705435 0.514225
vt 0.694471 0.514501
vt 0.705510 0.514213
vt 0.705009 0.514001
vt 0.694760 0.514501
vt 0.694760 0.514001
vt 0.694259 0.514501
vt 0.705009 0.513923
vt 0.694760 0.513923
vt 0.694334 0.514225
vt 0.694483 0.514225
vt 0.694483 0.514076
vt 0.705587 0.519618
vt 0.694182 0.524735
vt 0.469515 0.883551
vt 0.705587 0.519618
vt 0.552632 0.883551
vt 0.694182 0.514501
vt 0.469515 0.800410
vt 0.552632 0.800410
vn 0.1303 -0.0000 0.9915
vn 0.4916 0.1216 0.8623
vn 0.1280 0.1280 0.9835
vn -0.4998 0.8661 0.0000
vn -0.8623 0.4916 0.1216
vn -0.4916 0.8623 0.1216
vn 0.8661 -0.0000 0.4998
vn 0.9835 0.1280 0.1280
vn 0.8623 0.1216 0.4916
vn -0.8661 0.4998 0.0000
vn -0.9835 0.1280 0.1280
vn -1.0000 0.0000 0.0000
vn -0.9915 -0.0000 0.1303
vn -0.1216 0.4916 0.8623
vn 0.1216 0.4916 0.8623
vn 0.4916 0.8623 0.1216
vn 0.8661 0.4998 0.0000
vn 0.4998 0.8661 0.0000
vn 0.4488 0.7727 0.4488
vn 0.4488 0.4488 0.7727
vn 0.7727 0.4488 0.4488
vn -0.4916 0.1216 0.8623
vn -0.8661 -0.0000 0.4998
vn -0.4998 -0.0000 0.8661
vn 0.8623 0.4916 0.1216
vn 0.1216 0.8623 0.4916
vn -0.1280 0.1280 0.9835
vn -0.1303 -0.0000 0.9915
vn 0.9915 0.1303 0.0000
vn -0.1216 0.8623 0.4916
vn -0.8623 0.1216 0.4916
vn 0.1280 0.9835 0.1280
vn 0.1303 0.9915 0.0000
vn -0.1280 0.9835 0.1280
vn -0.7727 0.4488 0.4488
vn -0.1303 0.9915 0.0000
vn -0.4488 0.4488 0.7727
vn -0.4488 0.7727 0.4488
vn 0.9915 -0.0000 0.1303
vn 1.0000 0.0000 0.0000
vn 0.4998 -0.0000 0.8661
vn 0.4916 0.1216 -0.8623
vn 0.1303 0.0000 -0.9915
vn 0.1280 0.1280 -0.9835
vn -0.8623 0.4916 -0.1216
vn -0.4916 0.8623 -0.1216
vn 0.9835 0.1280 -0.1280
vn 0.8661 0.0000 -0.4998
vn 0.8623 0.1216 -0.4916
vn -0.9835 0.1280 -0.1280
vn -0.9915 0.0000 -0.1303
vn -0.1216 0.4916 -0.8623
vn 0.1216 0.4916 -0.8623
vn 0.4916 0.8623 -0.1216
vn 0.4488 0.7727 -0.4488
vn 0.7727 0.4488 -0.4488
vn 0.4488 0.4488 -0.7727
vn -0.8661 0.0000 -0.4998
vn -0.4916 0.1216 -0.8623
vn -0.4998 0.0000 -0.8661
vn 0.8623 0.4916 -0.1216
vn 0.1216 0.8623 -0.4916
vn -0.1280 0.1280 -0.9835
vn -0.1303 0.0000 -0.9915
vn -0.1216 0.8623 -0.4916
vn -0.8623 0.1216 -0.4916
vn 0.1280 0.9835 -0.1280
vn -0.1280 0.9835 -0.1280
vn -0.7727 0.4488 -0.4488
vn -0.4488 0.4488 -0.7727
vn -0.4488 0.7727 -0.4488
vn 0.9915 0.0000 -0.1303
vn 0.4998 0.0000 -0.8661
vn 0.4916 -0.1216 0.8623
vn 0.1280 -0.1280 0.9835
vn -0.8623 -0.4916 0.1216
vn -0.4998 -0.8661 -0.0000
vn -0.4916 -0.8623 0.1216
vn 0.9835 -0.1280 0.1280
vn 0.8623 -0.1216 0.4916
vn -0.9835 -0.1280 0.1280
vn -0.8661 -0.4998 -0.0000
vn -0.1216 -0.4916 0.8623
vn 0.1216 -0.4916 0.8623
vn 0.8661 -0.4998 -0.0000
vn 0.4916 -0.8623 0.1216
vn 0.4998 -0.8661 -0.0000
vn 0.4488 -0.7727 0.4488
vn 0.7727 -0.4488 0.4488
vn 0.4488 -0.4488 0.7727
vn -0.4916 -0.1216 0.8623
vn 0.8623 -0.4916 0.1216
vn 0.1216 -0.8623 0.4916
vn -0.1280 -0.1280 0.9835
vn 0.9915 -0.1303 -0.0000
vn -0.1216 -0.8623 0.4916
vn -0.8623 -0.1216 0.4916
vn 0.1280 -0.9835 0.1280
vn 0.1303 -0.9915 -0.0000
vn -0.1280 -0.9835 0.1280
vn -0.7727 -0.4488 0.4488
vn -0.1303 -0.9915 -0.0000
vn -0.4488 -0.4488 0.7727
vn -0.4488 -0.7727 0.4488
vn 0.4916 -0.1216 -0.8623
vn 0.1280 -0.1280 -0.9835
vn -0.8623 -0.4916 -0.1216
vn -0.4916 -0.8623 -0.1216
vn 0.9835 -0.1280 -0.1280
vn 0.8623 -0.1216 -0.4916
vn -0.9835 -0.1280 -0.1280
vn -0.1216 -0.4916 -0.8623
vn 0.1216 -0.4916 -0.8623
vn 0.4916 -0.8623 -0.1216
vn 0.4488 -0.7727 -0.4488
vn 0.4488 -0.4488 -0.7727
vn 0.7727 -0.4488 -0.4488
vn -0.4916 -0.1216 -0.8623
vn 0.8623 -0.4916 -0.1216
vn 0.1216 -0.8623 -0.4916
vn -0.1280 -0.1280 -0.9835
vn -0.1216 -0.8623 -0.4916
vn -0.8623 -0.1216 -0.4916
vn 0.1280 -0.9835 -0.1280
vn -0.1280 -0.9835 -0.1280
vn -0.7727 -0.4488 -0.4488
vn -0.4488 -0.4488 -0.7727
vn -0.4488 -0.7727 -0.4488
vn -0.9915 0.1303 0.0000
vn -0.9915 -0.1303 -0.0000
usemtl Rubiks_Cube
s 1
f 2/1/1 4/2/2 1/3/3
f 6/4/4 8/5/5 5/6/6
f 10/7/7 12/8/8 9/9/9
f 7/10/10 14/11/11 8/5/5
f 14/11/11 16/12/12 15/13/13
f 18/14/14 1/3/3 17/15/15
f 21/16/16 23/17/17 20/18/18
f 24/19/19 25/20/20 26/21/21
f 28/22/22 30/23/23 27/24/24
f 4/2/2 17/15/15 1/3/3
f 22/25/25 9/9/9 12/8/8
f 9/9/9 25/20/20 4/2/2
f 17/15/15 24/19/19 31/26/26
f 19/27/27 27/24/24 32/28/28
f 22/25/25 33/29/29 23/17/17
f 34/30/30 17/15/15 31/26/26
f 29/31/31 15/13/13 30/23/23
f 22/25/25 24/19/19 26/21/21
f 36/32/32 20/18/18 35/33/33
f 1/3/3 32/28/28 2/1/1
f 5/6/6 34/30/30 37/34/34
f 28/22/22 40/35/35 29/31/31
f 18/14/14 28/22/22 19/27/27
f 41/36/36 36/32/32 35/33/33
f 31/26/26 21/16/16 36/32/32
f 29/31/31 8/5/5 14/11/11
f 39/37/37 38/38/38 40/35/35
f 33/39/29 11/40/39 42/41/40
f 18/14/14 38/38/38 39/37/37
f 8/5/5 38/38/38 5/6/6
f 3/42/41 9/9/9 4/2/2
f 41/36/36 5/6/6 37/34/34
f 37/34/34 31/26/26 36/32/32
f 44/43/42 46/44/43 43/45/44
f 48/46/45 6/4/4 47/47/46
f 50/48/47 52/49/48 49/50/49
f 53/51/50 7/10/10 48/46/45
f 16/12/12 53/51/50 54/52/51
f 43/45/44 57/53/52 55/54/53
f 23/17/17 59/55/54 20/18/18
f 60/56/55 61/57/56 62/58/57
f 64/59/58 66/60/59 63/61/60
f 55/54/53 44/43/42 43/45/44
f 49/50/49 58/62/61 50/48/47
f 62/58/57 49/50/49 44/43/42
f 60/56/55 55/54/53 67/63/62
f 63/61/60 56/64/63 68/65/64
f 33/29/29 58/62/61 23/17/17
f 55/54/53 69/66/65 67/63/62
f 54/52/51 65/67/66 64/59/58
f 58/62/61 60/56/55 59/55/54
f 20/18/18 70/68/67 35/33/33
f 68/65/64 43/45/44 46/44/43
f 69/66/65 47/47/46 71/69/68
f 73/70/69 66/60/59 65/67/66
f 66/60/59 57/53/52 56/64/63
f 70/68/67 41/36/36 35/33/33
f 59/55/54 67/63/62 70/68/67
f 48/46/45 65/67/66 53/51/50
f 74/71/70 73/70/69 72/72/71
f 51/73/72 33/39/29 42/41/40
f 57/53/52 72/72/71 69/66/65
f 72/72/71 48/46/45 47/47/46
f 49/50/49 45/74/73 44/43/42
f 47/47/46 41/36/36 71/69/68
f 67/63/62 71/69/68 70/68/67
f 76/75/74 2/1/1 75/76/75
f 78/77/76 80/78/77 77/79/78
f 82/80/79 10/7/7 81/81/80
f 83/82/81 79/83/82 78/77/76
f 16/12/12 83/82/81 15/13/13
f 75/76/75 87/84/83 85/85/84
f 89/86/85 91/87/86 88/88/87
f 92/89/88 93/90/89 94/91/90
f 30/23/23 96/92/91 27/24/24
f 85/85/84 76/75/74 75/76/75
f 81/81/80 90/93/92 82/80/79
f 94/91/90 81/81/80 76/75/74
f 92/89/88 85/85/84 97/94/93
f 27/24/24 86/95/94 32/28/28
f 98/96/95 90/93/92 89/86/85
f 85/85/84 99/97/96 97/94/93
f 15/13/13 95/98/97 30/23/23
f 90/93/92 92/89/88 91/87/86
f 88/88/87 101/99/98 100/100/99
f 32/28/28 75/76/75 2/1/1
f 99/97/96 77/79/78 102/101/100
f 104/102/101 96/92/91 95/98/97
f 96/92/91 87/84/83 86/95/94
f 101/99/98 106/103/102 100/100/99
f 91/87/86 97/94/93 101/99/98
f 78/77/76 95/98/97 83/82/81
f 105/104/103 104/102/101 103/105/104
f 11/40/39 98/106/95 42/41/40
f 87/84/83 103/105/104 99/97/96
f 103/105/104 78/77/76 77/79/78
f 81/81/80 3/42/41 76/75/74
f 77/79/78 106/103/102 102/101/100
f 97/94/93 102/101/100 101/99/98
f 46/44/43 108/107/105 107/108/106
f 80/78/77 110/109/107 109/110/108
f 52/49/48 112/111/109 111/112/110
f 79/83/82 113/113/111 110/109/107
f 113/113/111 16/12/12 54/52/51
f 115/114/112 107/108/106 114/115/113
f 117/116/114 89/86/85 88/88/87
f 119/117/115 120/118/116 121/119/117
f 122/120/118 64/59/58 63/61/60
f 108/107/105 114/115/113 107/108/106
f 118/121/119 111/112/110 112/111/109
f 111/112/110 120/118/116 108/107/105
f 114/115/113 119/117/115 124/122/120
f 116/123/121 63/61/60 68/65/64
f 118/121/119 98/96/95 89/86/85
f 125/124/122 114/115/113 124/122/120
f 123/125/123 54/52/51 64/59/58
f 118/121/119 119/117/115 121/119/117
f 126/126/124 88/88/87 100/100/99
f 107/108/106 68/65/64 46/44/43
f 109/110/108 125/124/122 127/127/125
f 122/120/118 130/128/126 123/125/123
f 115/114/112 122/120/118 116/123/121
f 106/103/102 126/126/124 100/100/99
f 124/122/120 117/116/114 126/126/124
f 123/125/123 110/109/107 113/113/111
f 129/129/127 128/130/128 130/128/126
f 98/106/95 51/73/72 42/41/40
f 115/114/112 128/130/128 129/129/127
f 110/109/107 128/130/128 109/110/108
f 45/74/73 111/112/110 108/107/105
f 106/103/102 109/110/108 127/127/125
f 127/127/125 124/122/120 126/126/124
f 2/1/1 3/42/41 4/2/2
f 6/4/4 7/10/10 8/5/5
f 10/7/7 11/131/39 12/8/8
f 7/10/10 13/132/129 14/11/11
f 14/11/11 13/132/129 16/12/12
f 18/14/14 19/27/27 1/3/3
f 21/16/16 22/25/25 23/17/17
f 28/22/22 29/31/31 30/23/23
f 4/2/2 25/20/20 17/15/15
f 22/25/25 26/21/21 9/9/9
f 9/9/9 26/21/21 25/20/20
f 17/15/15 25/20/20 24/19/19
f 19/27/27 28/22/22 27/24/24
f 22/25/25 12/8/8 33/29/29
f 34/30/30 18/14/14 17/15/15
f 29/31/31 14/11/11 15/13/13
f 22/25/25 21/16/16 24/19/19
f 36/32/32 21/16/16 20/18/18
f 1/3/3 19/27/27 32/28/28
f 5/6/6 38/38/38 34/30/30
f 28/22/22 39/37/37 40/35/35
f 18/14/14 39/37/37 28/22/22
f 41/36/36 37/34/34 36/32/32
f 31/26/26 24/19/19 21/16/16
f 29/31/31 40/35/35 8/5/5
f 33/39/29 12/133/8 11/40/39
f 18/14/14 34/30/30 38/38/38
f 8/5/5 40/35/35 38/38/38
f 3/42/41 10/7/7 9/9/9
f 41/36/36 6/4/4 5/6/6
f 37/34/34 34/30/30 31/26/26
f 44/43/42 45/74/73 46/44/43
f 48/46/45 7/10/10 6/4/4
f 50/48/47 51/134/72 52/49/48
f 53/51/50 13/132/129 7/10/10
f 16/12/12 13/132/129 53/51/50
f 43/45/44 56/64/63 57/53/52
f 23/17/17 58/62/61 59/55/54
f 64/59/58 65/67/66 66/60/59
f 55/54/53 62/58/57 44/43/42
f 49/50/49 61/57/56 58/62/61
f 62/58/57 61/57/56 49/50/49
f 60/56/55 62/58/57 55/54/53
f 63/61/60 66/60/59 56/64/63
f 33/29/29 50/48/47 58/62/61
f 55/54/53 57/53/52 69/66/65
f 54/52/51 53/51/50 65/67/66
f 58/62/61 61/57/56 60/56/55
f 20/18/18 59/55/54 70/68/67
f 68/65/64 56/64/63 43/45/44
f 69/66/65 72/72/71 47/47/46
f 73/70/69 74/71/70 66/60/59
f 66/60/59 74/71/70 57/53/52
f 70/68/67 71/69/68 41/36/36
f 59/55/54 60/56/55 67/63/62
f 48/46/45 73/70/69 65/67/66
f 51/73/72 50/135/47 33/39/29
f 57/53/52 74/71/70 72/72/71
f 72/72/71 73/70/69 48/46/45
f 49/50/49 52/49/48 45/74/73
f 47/47/46 6/4/4 41/36/36
f 67/63/62 69/66/65 71/69/68
f 76/75/74 3/42/41 2/1/1
f 78/77/76 79/83/82 80/78/77
f 82/80/79 11/131/39 10/7/7
f 83/82/81 84/136/130 79/83/82
f 16/12/12 84/136/130 83/82/81
f 75/76/75 86/95/94 87/84/83
f 89/86/85 90/93/92 91/87/86
f 30/23/23 95/98/97 96/92/91
f 85/85/84 94/91/90 76/75/74
f 81/81/80 93/90/89 90/93/92
f 94/91/90 93/90/89 81/81/80
f 92/89/88 94/91/90 85/85/84
f 27/24/24 96/92/91 86/95/94
f 98/96/95 82/80/79 90/93/92
f 85/85/84 87/84/83 99/97/96
f 15/13/13 83/82/81 95/98/97
f 90/93/92 93/90/89 92/89/88
f 88/88/87 91/87/86 101/99/98
f 32/28/28 86/95/94 75/76/75
f 99/97/96 103/105/104 77/79/78
f 104/102/101 105/104/103 96/92/91
f 96/92/91 105/104/103 87/84/83
f 101/99/98 102/101/100 106/103/102
f 91/87/86 92/89/88 97/94/93
f 78/77/76 104/102/101 95/98/97
f 11/40/39 82/137/79 98/106/95
f 87/84/83 105/104/103 103/105/104
f 103/105/104 104/102/101 78/77/76
f 81/81/80 10/7/7 3/42/41
f 77/79/78 80/78/77 106/103/102
f 97/94/93 99/97/96 102/101/100
f 46/44/43 45/74/73 108/107/105
f 80/78/77 79/83/82 110/109/107
f 52/49/48 51/134/72 112/111/109
f 79/83/82 84/136/130 113/113/111
f 113/113/111 84/136/130 16/12/12
f 115/114/112 116/123/121 107/108/106
f 117/116/114 118/121/119 89/86/85
f 122/120/118 123/125/123 64/59/58
f 108/107/105 120/118/116 114/115/113
f 118/121/119 121/119/117 111/112/110
f 111/112/110 121/119/117 120/118/116
f 114/115/113 120/118/116 119/117/115
f 116/123/121 122/120/118 63/61/60
f 118/121/119 112/111/109 98/96/95
f 125/124/122 115/114/112 114/115/113
f 123/125/123 113/113/111 54/52/51
f 118/121/119 117/116/114 119/117/115
f 126/126/124 117/116/114 88/88/87
f 107/108/106 116/123/121 68/65/64
f 109/110/108 128/130/128 125/124/122
f 122/120/118 129/129/127 130/128/126
f 115/114/112 129/129/127 122/120/118
f 106/103/102 127/127/125 126/126/124
f 124/122/120 119/117/115 117/116/114
f 123/125/123 130/128/126 110/109/107
f 98/106/95 112/138/109 51/73/72
f 115/114/112 125/124/122 128/130/128
f 110/109/107 130/128/126 128/130/128
f 45/74/73 52/49/48 111/112/110
f 106/103/102 80/78/77 109/110/108
f 127/127/125 125/124/122 124/122/120
