# Blender v2.90.0 OBJ File: 'Cube10_M.blend'
# www.blender.org
mtllib Cube10_M.mtl
o Rubiks_Cube_Cube.014
v 0.985360 0.897260 1.050738
v 0.948161 0.897260 1.013539
v 0.946020 0.945723 1.026690
v 0.972209 0.945723 1.052879
v 0.897557 0.947865 1.013539
v 0.897557 0.985064 1.050738
v 0.946020 0.971912 1.052879
v 0.948161 0.985064 1.101342
v 0.985360 0.947865 1.101342
v 0.948161 0.897260 2.986461
v 0.985360 0.897260 2.949262
v 0.972209 0.945723 2.947121
v 0.946020 0.945723 2.973310
v 0.946020 0.971912 2.947121
v 0.998899 0.897260 2.898658
v 0.985360 0.947865 2.898658
v 0.897557 0.985064 2.949262
v 0.897557 0.947865 2.986461
v 0.998899 -0.000000 1.101342
v 0.998899 0.897260 1.101342
v 0.998899 -0.000000 2.898658
v 0.948161 0.985064 2.898658
v 0.897557 0.998603 1.101342
v 0.897557 0.897260 3.000000
v 0.897557 0.998603 2.898658
v 0.000000 -0.000000 1.000000
v 0.000000 0.897260 1.000000
v 0.897557 0.897260 1.000000
v 0.897557 -0.000000 1.000000
v 0.000000 0.985064 2.949262
v 0.000000 0.947865 2.986461
v 0.000000 0.998603 1.101342
v 0.000000 0.998603 2.898658
v 0.897557 -0.000000 3.000000
v 0.000000 0.897260 3.000000
v 0.000000 -0.000000 3.000000
v 0.000000 0.985064 1.050738
v 0.000000 0.947865 1.013539
v 0.948161 -0.000000 1.013539
v 0.985360 -0.000000 2.949262
v 0.985360 -0.000000 1.050738
v 0.948161 -0.000000 2.986461
v -0.985360 0.897260 1.050738
v -0.972209 0.945723 1.052879
v -0.946020 0.945723 1.026690
v -0.948161 0.897260 1.013539
v -0.897557 0.947865 1.013539
v -0.946020 0.971912 1.052879
v -0.897557 0.985064 1.050738
v -0.948161 0.985064 1.101342
v -0.985360 0.947865 1.101342
v -0.948161 0.897260 2.986461
v -0.946020 0.945723 2.973310
v -0.972209 0.945723 2.947121
v -0.985360 0.897260 2.949262
v -0.946020 0.971912 2.947121
v -0.998899 0.897260 2.898658
v -0.985360 0.947865 2.898658
v -0.897557 0.985064 2.949262
v -0.897557 0.947865 2.986461
v -0.998899 -0.000000 1.101342
v -0.998899 -0.000000 2.898658
v -0.998899 0.897260 1.101342
v -0.948161 0.985064 2.898658
v -0.897557 0.998603 1.101342
v -0.897557 0.897260 3.000000
v -0.897557 0.998603 2.898658
v -0.897557 -0.000000 1.000000
v -0.897557 0.897260 1.000000
v -0.897557 -0.000000 3.000000
v -0.948161 -0.000000 1.013539
v -0.985360 -0.000000 2.949262
v -0.985360 -0.000000 1.050738
v -0.948161 -0.000000 2.986461
v 0.985360 -0.897260 1.050738
v 0.972209 -0.945723 1.052879
v 0.946020 -0.945723 1.026690
v 0.948161 -0.897260 1.013539
v 0.897557 -0.947865 1.013539
v 0.946020 -0.971912 1.052879
v 0.897557 -0.985064 1.050738
v 0.948161 -0.985064 1.101342
v 0.985360 -0.947865 1.101342
v 0.948161 -0.897260 2.986461
v 0.946020 -0.945723 2.973310
v 0.972209 -0.945723 2.947121
v 0.985360 -0.897260 2.949262
v 0.946020 -0.971913 2.947121
v 0.998899 -0.897260 2.898658
v 0.985360 -0.947865 2.898658
v 0.897557 -0.985065 2.949262
v 0.897557 -0.947865 2.986461
v 0.998899 -0.897260 1.101342
v 0.948161 -0.985065 2.898658
v 0.897557 -0.998603 1.101342
v 0.897557 -0.897260 3.000000
v 0.897557 -0.998603 2.898658
v 0.897557 -0.897260 1.000000
v 0.000000 -0.897260 1.000000
v 0.000000 -0.947865 2.986461
v 0.000000 -0.985065 2.949262
v 0.000000 -0.998603 2.898658
v 0.000000 -0.998603 1.101342
v 0.000000 -0.897260 3.000000
v 0.000000 -0.985064 1.050738
v 0.000000 -0.947865 1.013539
v -0.985360 -0.897260 1.050738
v -0.948161 -0.897260 1.013539
v -0.946020 -0.945723 1.026690
v -0.972209 -0.945723 1.052879
v -0.897557 -0.947865 1.013539
v -0.897557 -0.985064 1.050738
v -0.946020 -0.971912 1.052879
v -0.948161 -0.985064 1.101342
v -0.985360 -0.947865 1.101342
v -0.948161 -0.897260 2.986461
v -0.985360 -0.897260 2.949262
v -0.972209 -0.945723 2.947121
v -0.946020 -0.945723 2.973310
v -0.946020 -0.971913 2.947121
v -0.998899 -0.897260 2.898658
v -0.985360 -0.947865 2.898658
v -0.897557 -0.985065 2.949262
v -0.897557 -0.947865 2.986461
v -0.998899 -0.897260 1.101342
v -0.948161 -0.985065 2.898658
v -0.897557 -0.998603 1.101342
v -0.897557 -0.897260 3.000000
v -0.897557 -0.998603 2.898658
v -0.897557 -0.897260 1.000000
vt 0.694098 0.524735
vt 0.693874 0.525011
vt 0.694023 0.525011
vt 0.693598 0.525023
vt 0.693874 0.525160
vt 0.694098 0.525023
vt 0.693886 0.525235
vt 0.693886 0.524735
vt 0.694023 0.525011
vt 0.693874 0.525011
vt 0.693874 0.525160
vt 0.694098 0.525023
vt 0.694098 0.524735
vt 0.694176 0.524735
vt 0.693598 0.525023
vt 0.693598 0.525235
vt 0.694176 0.524735
vt 0.694176 0.519618
vt 0.694176 0.519618
vt 0.693598 0.525235
vt 0.693598 0.525312
vt 0.693598 0.524735
vt 0.693886 0.525235
vt 0.693598 0.525312
vt 0.688479 0.524735
vt 0.693598 0.519618
vt 0.688479 0.519618
vt 0.693886 0.524735
vt 0.693598 0.524735
vt 0.688479 0.525235
vt 0.688479 0.525312
vt 0.688479 0.525312
vt 0.216814 0.882575
vt 0.170038 0.835815
vt 0.216814 0.835815
vt 0.688479 0.525023
vt 0.688479 0.525023
vt 0.688479 0.525235
vt 0.693886 0.519618
vt 0.694098 0.519618
vt 0.693598 0.519618
vt 0.694098 0.519618
vt 0.693886 0.519618
vt 0.682860 0.524735
vt 0.683085 0.525011
vt 0.683073 0.524735
vt 0.683361 0.525023
vt 0.683085 0.525160
vt 0.683361 0.525235
vt 0.682860 0.525023
vt 0.683073 0.525235
vt 0.683073 0.524735
vt 0.682935 0.525011
vt 0.682860 0.524735
vt 0.683085 0.525160
vt 0.683085 0.525011
vt 0.682860 0.525023
vt 0.682783 0.524735
vt 0.683361 0.525023
vt 0.683361 0.525235
vt 0.682783 0.519618
vt 0.682783 0.524735
vt 0.682783 0.519618
vt 0.682935 0.525011
vt 0.683073 0.525235
vt 0.683361 0.525312
vt 0.683361 0.524735
vt 0.683361 0.525312
vt 0.683361 0.519618
vt 0.683361 0.524735
vt 0.123263 0.882575
vt 0.123263 0.835815
vt 0.683073 0.519618
vt 0.682860 0.519618
vt 0.683361 0.519618
vt 0.682860 0.519618
vt 0.683073 0.519618
vt 0.694098 0.514501
vt 0.693874 0.514225
vt 0.693886 0.514501
vt 0.693598 0.514213
vt 0.693874 0.514076
vt 0.693598 0.514001
vt 0.694098 0.514213
vt 0.693886 0.514001
vt 0.693886 0.514501
vt 0.694023 0.514225
vt 0.694098 0.514501
vt 0.693874 0.514076
vt 0.693874 0.514225
vt 0.694098 0.514213
vt 0.694176 0.514501
vt 0.693598 0.514213
vt 0.693598 0.514001
vt 0.694176 0.514501
vt 0.694023 0.514225
vt 0.693886 0.514001
vt 0.693598 0.513923
vt 0.693598 0.514501
vt 0.693598 0.513923
vt 0.688479 0.514501
vt 0.693598 0.514501
vt 0.688479 0.514001
vt 0.688479 0.513923
vt 0.688479 0.513923
vt 0.216814 0.789055
vt 0.688479 0.514213
vt 0.688479 0.514213
vt 0.688479 0.514001
vt 0.682860 0.514501
vt 0.683085 0.514225
vt 0.682935 0.514225
vt 0.683361 0.514213
vt 0.683085 0.514076
vt 0.682860 0.514213
vt 0.683073 0.514001
vt 0.683073 0.514501
vt 0.682935 0.514225
vt 0.683085 0.514225
vt 0.683085 0.514076
vt 0.682860 0.514213
vt 0.682860 0.514501
vt 0.682783 0.514501
vt 0.683361 0.514213
vt 0.683361 0.514001
vt 0.682783 0.514501
vt 0.683361 0.514001
vt 0.683361 0.513923
vt 0.683361 0.514501
vt 0.683073 0.514001
vt 0.683361 0.513923
vt 0.683073 0.514501
vt 0.683361 0.514501
vt 0.123263 0.789055
vt 0.170038 0.882575
vt 0.688479 0.524735
vt 0.170038 0.789055
vt 0.688479 0.514501
vn 0.8623 0.1216 -0.4916
vn 0.4488 0.4488 -0.7727
vn 0.7727 0.4488 -0.4488
vn 0.1216 0.4916 -0.8623
vn 0.4488 0.7727 -0.4488
vn 0.8623 0.4916 -0.1216
vn 0.4916 0.8623 -0.1216
vn 0.4916 0.1216 0.8623
vn 0.7727 0.4488 0.4488
vn 0.4488 0.4488 0.7727
vn 0.4488 0.7727 0.4488
vn 0.8623 0.4916 0.1216
vn 0.8623 0.1216 0.4916
vn 0.9835 0.1280 0.1280
vn 0.1216 0.4916 0.8623
vn 0.1216 0.8623 0.4916
vn 0.9835 0.1280 -0.1280
vn 0.9915 -0.0000 0.1303
vn 0.9915 0.0000 -0.1303
vn 0.1216 0.8623 -0.4916
vn 0.1280 0.9835 -0.1280
vn 0.1280 0.1280 0.9835
vn 0.4916 0.8623 0.1216
vn 0.1280 0.9835 0.1280
vn 0.0000 0.1303 -0.9915
vn 0.1303 0.0000 -0.9915
vn 0.0000 0.0000 -1.0000
vn 0.4916 0.1216 -0.8623
vn 0.1280 0.1280 -0.9835
vn 0.0000 0.8661 0.4998
vn 0.0000 0.9915 -0.1303
vn 0.0000 0.9915 0.1303
vn 0.0000 -0.0000 1.0000
vn 0.1303 -0.0000 0.9915
vn 0.0000 0.4998 0.8661
vn 0.0000 0.4998 -0.8661
vn 0.0000 0.8661 -0.4998
vn 0.4998 0.0000 -0.8661
vn 0.8661 -0.0000 0.4998
vn 0.8661 0.0000 -0.4998
vn 0.4998 -0.0000 0.8661
vn -0.8623 0.1216 -0.4916
vn -0.4488 0.4488 -0.7727
vn -0.4916 0.1216 -0.8623
vn -0.1216 0.4916 -0.8623
vn -0.4488 0.7727 -0.4488
vn -0.1216 0.8623 -0.4916
vn -0.8623 0.4916 -0.1216
vn -0.4916 0.8623 -0.1216
vn -0.4916 0.1216 0.8623
vn -0.7727 0.4488 0.4488
vn -0.8623 0.1216 0.4916
vn -0.4488 0.7727 0.4488
vn -0.4488 0.4488 0.7727
vn -0.8623 0.4916 0.1216
vn -0.9835 0.1280 0.1280
vn -0.1216 0.4916 0.8623
vn -0.1216 0.8623 0.4916
vn -0.9915 -0.0000 0.1303
vn -0.9835 0.1280 -0.1280
vn -0.9915 0.0000 -0.1303
vn -0.7727 0.4488 -0.4488
vn -0.4916 0.8623 0.1216
vn -0.1280 0.9835 -0.1280
vn -0.1280 0.1280 0.9835
vn -0.1280 0.9835 0.1280
vn -0.1303 0.0000 -0.9915
vn -0.1280 0.1280 -0.9835
vn -0.1303 -0.0000 0.9915
vn -0.4998 0.0000 -0.8661
vn -0.8661 -0.0000 0.4998
vn -0.8661 0.0000 -0.4998
vn -0.4998 -0.0000 0.8661
vn 0.8623 -0.1216 -0.4916
vn 0.4488 -0.4488 -0.7727
vn 0.4916 -0.1216 -0.8623
vn 0.1216 -0.4916 -0.8623
vn 0.4488 -0.7727 -0.4488
vn 0.1216 -0.8623 -0.4916
vn 0.8623 -0.4916 -0.1216
vn 0.4916 -0.8623 -0.1216
vn 0.4916 -0.1216 0.8623
vn 0.7727 -0.4488 0.4489
vn 0.8623 -0.1216 0.4916
vn 0.4489 -0.7727 0.4489
vn 0.4488 -0.4488 0.7727
vn 0.8623 -0.4916 0.1216
vn 0.9835 -0.1280 0.1280
vn 0.1216 -0.4916 0.8623
vn 0.1216 -0.8623 0.4916
vn 0.9835 -0.1280 -0.1280
vn 0.7727 -0.4488 -0.4488
vn 0.4916 -0.8623 0.1216
vn 0.1280 -0.9835 -0.1280
vn 0.1280 -0.1280 0.9835
vn 0.1280 -0.9835 0.1280
vn 0.0000 -0.1303 -0.9915
vn 0.1280 -0.1280 -0.9835
vn 0.0000 -0.8661 0.4998
vn 0.0000 -0.9915 -0.1303
vn 0.0000 -0.9915 0.1303
vn 0.0000 -0.4998 0.8661
vn 0.0000 -0.4998 -0.8661
vn 0.0000 -0.8661 -0.4998
vn -0.8623 -0.1216 -0.4916
vn -0.4488 -0.4488 -0.7727
vn -0.7727 -0.4488 -0.4488
vn -0.1216 -0.4916 -0.8623
vn -0.4488 -0.7727 -0.4488
vn -0.8623 -0.4916 -0.1216
vn -0.4916 -0.8623 -0.1216
vn -0.4916 -0.1216 0.8623
vn -0.7727 -0.4488 0.4489
vn -0.4488 -0.4488 0.7727
vn -0.4489 -0.7727 0.4489
vn -0.8623 -0.4916 0.1216
vn -0.8623 -0.1216 0.4916
vn -0.9835 -0.1280 0.1280
vn -0.1216 -0.4916 0.8623
vn -0.1216 -0.8623 0.4916
vn -0.9835 -0.1280 -0.1280
vn -0.1216 -0.8623 -0.4916
vn -0.1280 -0.9835 -0.1280
vn -0.1280 -0.1280 0.9835
vn -0.4916 -0.8623 0.1216
vn -0.1280 -0.9835 0.1280
vn -0.4916 -0.1216 -0.8623
vn -0.1280 -0.1280 -0.9835
vn 0.0000 0.1303 0.9915
vn 0.0000 -0.1303 0.9915
usemtl Rubiks_Cube
s 1
f 1/1/1 3/2/2 4/3/3
f 5/4/4 7/5/5 3/2/2
f 9/6/6 7/5/5 8/7/7
f 10/8/8 12/9/9 13/10/10
f 14/11/11 13/10/10 12/9/9
f 16/12/12 11/13/13 15/14/14
f 18/15/15 14/11/11 17/16/16
f 20/17/17 21/18/18 19/19/19
f 7/5/5 4/3/3 3/2/2
f 16/12/12 14/11/11 12/9/9
f 8/7/7 6/20/20 23/21/21
f 10/8/8 18/15/15 24/22/22
f 17/16/16 22/23/23 25/24/24
f 27/25/25 29/26/26 26/27/27
f 1/1/1 9/6/6 20/17/17
f 5/4/4 2/28/28 28/29/29
f 30/30/30 18/15/15 17/16/16
f 32/31/31 25/24/24 23/21/21
f 33/32/32 17/16/16 25/24/24
f 24/33/22 36/34/33 34/35/34
f 31/36/35 24/22/22 18/15/15
f 16/12/12 20/17/17 9/6/6
f 6/20/20 38/37/36 37/38/37
f 25/24/24 8/7/7 23/21/21
f 5/4/4 27/25/25 38/37/36
f 22/23/23 9/6/6 8/7/7
f 23/21/21 37/38/37 32/31/31
f 39/39/38 28/29/29 2/28/28
f 40/40/39 15/14/14 11/13/13
f 19/19/19 1/1/1 20/17/17
f 34/41/34 10/8/8 24/22/22
f 41/42/40 2/28/28 1/1/1
f 42/43/41 11/13/13 10/8/8
f 43/44/42 45/45/43 46/46/44
f 47/47/45 48/48/46 49/49/47
f 48/48/46 51/50/48 50/51/49
f 52/52/50 54/53/51 55/54/52
f 56/55/53 54/53/51 53/56/54
f 55/54/52 58/57/55 57/58/56
f 56/55/53 60/59/57 59/60/58
f 62/61/59 63/62/60 61/63/61
f 48/48/46 45/45/43 44/64/62
f 58/57/55 56/55/53 64/65/63
f 49/49/47 50/51/49 65/66/64
f 60/59/57 52/52/50 66/67/65
f 64/65/63 59/60/58 67/68/66
f 68/69/67 27/25/25 26/27/27
f 51/50/48 43/44/42 63/62/60
f 46/46/44 47/47/45 69/70/68
f 60/59/57 30/30/30 59/60/58
f 67/68/66 32/31/31 65/66/64
f 59/60/58 33/32/32 67/68/66
f 36/34/33 66/71/65 70/72/69
f 66/67/65 31/36/35 60/59/57
f 63/62/60 58/57/55 51/50/48
f 38/37/36 49/49/47 37/38/37
f 50/51/49 67/68/66 65/66/64
f 27/25/25 47/47/45 38/37/36
f 51/50/48 64/65/63 50/51/49
f 37/38/37 65/66/64 32/31/31
f 69/70/68 71/73/70 46/46/44
f 57/58/56 72/74/71 55/54/52
f 43/44/42 61/63/61 63/62/60
f 52/52/50 70/75/69 66/67/65
f 46/46/44 73/76/72 43/44/42
f 55/54/52 74/77/73 52/52/50
f 75/78/74 77/79/75 78/80/76
f 79/81/77 80/82/78 81/83/79
f 80/82/78 83/84/80 82/85/81
f 84/86/82 86/87/83 87/88/84
f 88/89/85 86/87/83 85/90/86
f 87/88/84 90/91/87 89/92/88
f 88/89/85 92/93/89 91/94/90
f 21/18/18 93/95/91 19/19/19
f 80/82/78 77/79/75 76/96/92
f 90/91/87 88/89/85 94/97/93
f 81/83/79 82/85/81 95/98/94
f 92/93/89 84/86/82 96/99/95
f 94/97/93 91/94/90 97/100/96
f 29/26/26 99/101/97 26/27/27
f 83/84/80 75/78/74 93/95/91
f 78/80/76 79/81/77 98/102/98
f 92/93/89 101/103/99 91/94/90
f 97/100/96 103/104/100 95/98/94
f 91/94/90 102/105/101 97/100/96
f 36/34/33 96/106/95 34/35/34
f 96/99/95 100/107/102 92/93/89
f 93/95/91 90/91/87 83/84/80
f 106/108/103 81/83/79 105/109/104
f 82/85/81 97/100/96 95/98/94
f 99/101/97 79/81/77 106/108/103
f 83/84/80 94/97/93 82/85/81
f 105/109/104 95/98/94 103/104/100
f 98/102/98 39/39/38 78/80/76
f 89/92/88 40/40/39 87/88/84
f 75/78/74 19/19/19 93/95/91
f 84/86/82 34/41/34 96/99/95
f 78/80/76 41/42/40 75/78/74
f 87/88/84 42/43/41 84/86/82
f 107/110/105 109/111/106 110/112/107
f 111/113/108 113/114/109 109/111/106
f 115/115/110 113/114/109 114/116/111
f 116/117/112 118/118/113 119/119/114
f 120/120/115 119/119/114 118/118/113
f 122/121/116 117/122/117 121/123/118
f 124/124/119 120/120/115 123/125/120
f 125/126/121 62/61/59 61/63/61
f 113/114/109 110/112/107 109/111/106
f 122/121/116 120/120/115 118/118/113
f 114/116/111 112/127/122 127/128/123
f 116/117/112 124/124/119 128/129/124
f 123/125/120 126/130/125 129/131/126
f 99/101/97 68/69/67 26/27/27
f 107/110/105 115/115/110 125/126/121
f 111/113/108 108/132/127 130/133/128
f 101/103/99 124/124/119 123/125/120
f 103/104/100 129/131/126 127/128/123
f 102/105/101 123/125/120 129/131/126
f 128/134/124 36/34/33 70/72/69
f 100/107/102 128/129/124 124/124/119
f 122/121/116 125/126/121 115/115/110
f 112/127/122 106/108/103 105/109/104
f 129/131/126 114/116/111 127/128/123
f 111/113/108 99/101/97 106/108/103
f 126/130/125 115/115/110 114/116/111
f 127/128/123 105/109/104 103/104/100
f 71/73/70 130/133/128 108/132/127
f 72/74/71 121/123/118 117/122/117
f 61/63/61 107/110/105 125/126/121
f 70/75/69 116/117/112 128/129/124
f 73/76/72 108/132/127 107/110/105
f 74/77/73 117/122/117 116/117/112
f 1/1/1 2/28/28 3/2/2
f 5/4/4 6/20/20 7/5/5
f 9/6/6 4/3/3 7/5/5
f 10/8/8 11/13/13 12/9/9
f 16/12/12 12/9/9 11/13/13
f 18/15/15 13/10/10 14/11/11
f 20/17/17 15/14/14 21/18/18
f 16/12/12 22/23/23 14/11/11
f 8/7/7 7/5/5 6/20/20
f 10/8/8 13/10/10 18/15/15
f 17/16/16 14/11/11 22/23/23
f 27/25/25 28/29/29 29/26/26
f 1/1/1 4/3/3 9/6/6
f 5/4/4 3/2/2 2/28/28
f 30/30/30 31/36/35 18/15/15
f 32/31/31 33/32/32 25/24/24
f 33/32/32 30/30/30 17/16/16
f 24/33/22 35/135/129 36/34/33
f 31/36/35 35/136/129 24/22/22
f 16/12/12 15/14/14 20/17/17
f 6/20/20 5/4/4 38/37/36
f 25/24/24 22/23/23 8/7/7
f 5/4/4 28/29/29 27/25/25
f 22/23/23 16/12/12 9/6/6
f 23/21/21 6/20/20 37/38/37
f 39/39/38 29/26/26 28/29/29
f 40/40/39 21/18/18 15/14/14
f 19/19/19 41/42/40 1/1/1
f 34/41/34 42/43/41 10/8/8
f 41/42/40 39/39/38 2/28/28
f 42/43/41 40/40/39 11/13/13
f 43/44/42 44/64/62 45/45/43
f 47/47/45 45/45/43 48/48/46
f 48/48/46 44/64/62 51/50/48
f 52/52/50 53/56/54 54/53/51
f 55/54/52 54/53/51 58/57/55
f 56/55/53 53/56/54 60/59/57
f 62/61/59 57/58/56 63/62/60
f 58/57/55 54/53/51 56/55/53
f 49/49/47 48/48/46 50/51/49
f 60/59/57 53/56/54 52/52/50
f 64/65/63 56/55/53 59/60/58
f 68/69/67 69/70/68 27/25/25
f 51/50/48 44/64/62 43/44/42
f 46/46/44 45/45/43 47/47/45
f 60/59/57 31/36/35 30/30/30
f 67/68/66 33/32/32 32/31/31
f 59/60/58 30/30/30 33/32/32
f 36/34/33 35/135/129 66/71/65
f 66/67/65 35/136/129 31/36/35
f 63/62/60 57/58/56 58/57/55
f 38/37/36 47/47/45 49/49/47
f 50/51/49 64/65/63 67/68/66
f 27/25/25 69/70/68 47/47/45
f 51/50/48 58/57/55 64/65/63
f 37/38/37 49/49/47 65/66/64
f 69/70/68 68/69/67 71/73/70
f 57/58/56 62/61/59 72/74/71
f 43/44/42 73/76/72 61/63/61
f 52/52/50 74/77/73 70/75/69
f 46/46/44 71/73/70 73/76/72
f 55/54/52 72/74/71 74/77/73
f 75/78/74 76/96/92 77/79/75
f 79/81/77 77/79/75 80/82/78
f 80/82/78 76/96/92 83/84/80
f 84/86/82 85/90/86 86/87/83
f 87/88/84 86/87/83 90/91/87
f 88/89/85 85/90/86 92/93/89
f 21/18/18 89/92/88 93/95/91
f 90/91/87 86/87/83 88/89/85
f 81/83/79 80/82/78 82/85/81
f 92/93/89 85/90/86 84/86/82
f 94/97/93 88/89/85 91/94/90
f 29/26/26 98/102/98 99/101/97
f 83/84/80 76/96/92 75/78/74
f 78/80/76 77/79/75 79/81/77
f 92/93/89 100/107/102 101/103/99
f 97/100/96 102/105/101 103/104/100
f 91/94/90 101/103/99 102/105/101
f 36/34/33 104/137/130 96/106/95
f 96/99/95 104/138/130 100/107/102
f 93/95/91 89/92/88 90/91/87
f 106/108/103 79/81/77 81/83/79
f 82/85/81 94/97/93 97/100/96
f 99/101/97 98/102/98 79/81/77
f 83/84/80 90/91/87 94/97/93
f 105/109/104 81/83/79 95/98/94
f 98/102/98 29/26/26 39/39/38
f 89/92/88 21/18/18 40/40/39
f 75/78/74 41/42/40 19/19/19
f 84/86/82 42/43/41 34/41/34
f 78/80/76 39/39/38 41/42/40
f 87/88/84 40/40/39 42/43/41
f 107/110/105 108/132/127 109/111/106
f 111/113/108 112/127/122 113/114/109
f 115/115/110 110/112/107 113/114/109
f 116/117/112 117/122/117 118/118/113
f 122/121/116 118/118/113 117/122/117
f 124/124/119 119/119/114 120/120/115
f 125/126/121 121/123/118 62/61/59
f 122/121/116 126/130/125 120/120/115
f 114/116/111 113/114/109 112/127/122
f 116/117/112 119/119/114 124/124/119
f 123/125/120 120/120/115 126/130/125
f 99/101/97 130/133/128 68/69/67
f 107/110/105 110/112/107 115/115/110
f 111/113/108 109/111/106 108/132/127
f 101/103/99 100/107/102 124/124/119
f 103/104/100 102/105/101 129/131/126
f 102/105/101 101/103/99 123/125/120
f 128/134/124 104/137/130 36/34/33
f 100/107/102 104/138/130 128/129/124
f 122/121/116 121/123/118 125/126/121
f 112/127/122 111/113/108 106/108/103
f 129/131/126 126/130/125 114/116/111
f 111/113/108 130/133/128 99/101/97
f 126/130/125 122/121/116 115/115/110
f 127/128/123 112/127/122 105/109/104
f 71/73/70 68/69/67 130/133/128
f 72/74/71 62/61/59 121/123/118
f 61/63/61 73/76/72 107/110/105
f 70/75/69 74/77/73 116/117/112
f 73/76/72 71/73/70 108/132/127
f 74/77/73 72/74/71 117/122/117
