# Blender v2.90.0 OBJ File: 'Cube11_B.blend'
# www.blender.org
mtllib Cube11_B.mtl
o Rubiks_Cube_Cube.023
v 0.998899 -1.100142 -0.000000
v 0.998899 -1.100142 0.897001
v 0.998899 -2.897457 0.897001
v 0.998899 -2.897457 -0.000000
v 0.897557 -0.998799 0.897001
v 0.897557 -1.012338 0.947605
v 0.946020 -1.025490 0.945464
v 0.948161 -1.012338 0.897001
v 0.972209 -1.051679 0.945464
v 0.985360 -1.049537 0.897001
v 0.985360 -1.100142 0.947605
v 0.946020 -1.051679 0.971653
v 0.948161 -1.100142 0.984804
v 0.897557 -1.100142 0.998343
v 0.897557 -1.049537 0.984804
v 0.897557 -2.998799 0.897001
v 0.948161 -2.985260 0.897001
v 0.946020 -2.972109 0.945464
v 0.897557 -2.985260 0.947605
v 0.946020 -2.945920 0.971653
v 0.897557 -2.948061 0.984803
v 0.897557 -2.897457 0.998343
v 0.948161 -2.897457 0.984803
v 0.972209 -2.945920 0.945464
v 0.985360 -2.897457 0.947605
v 0.985360 -2.948061 0.897001
v 0.897557 -2.998799 -0.000000
v 0.948161 -2.985260 -0.000000
v 0.985360 -2.948061 -0.000000
v 0.000000 -0.998799 0.897001
v 0.000000 -1.012338 0.947605
v 0.000000 -1.049537 0.984804
v 0.000000 -1.100142 0.998343
v 0.000000 -0.998799 -0.000000
v 0.897557 -0.998799 -0.000000
v 0.000000 -2.897457 0.998343
v 0.000000 -2.948061 0.984803
v 0.000000 -2.985260 0.947605
v 0.000000 -2.998799 0.897001
v 0.000000 -2.998799 -0.000000
v 0.985360 -1.049537 -0.000000
v 0.948161 -1.012338 -0.000000
v -0.998899 -1.100142 -0.000000
v -0.998899 -2.897457 -0.000000
v -0.998899 -2.897457 0.897001
v -0.998899 -1.100142 0.897001
v -0.897557 -0.998799 0.897001
v -0.948161 -1.012338 0.897001
v -0.946020 -1.025490 0.945464
v -0.897557 -1.012338 0.947605
v -0.985360 -1.049537 0.897001
v -0.972209 -1.051679 0.945464
v -0.985360 -1.100142 0.947605
v -0.948161 -1.100142 0.984804
v -0.946020 -1.051679 0.971653
v -0.897557 -1.100142 0.998343
v -0.897557 -1.049537 0.984804
v -0.897557 -2.998799 0.897001
v -0.897557 -2.985260 0.947605
v -0.946020 -2.972109 0.945464
v -0.948161 -2.985260 0.897001
v -0.897557 -2.948061 0.984803
v -0.946020 -2.945920 0.971653
v -0.897557 -2.897457 0.998343
v -0.948161 -2.897457 0.984803
v -0.985360 -2.897457 0.947605
v -0.972209 -2.945920 0.945464
v -0.985360 -2.948061 0.897001
v -0.897557 -2.998799 -0.000000
v -0.948161 -2.985260 -0.000000
v -0.985360 -2.948061 -0.000000
v -0.897557 -0.998799 -0.000000
v -0.985360 -1.049537 -0.000000
v -0.948161 -1.012338 -0.000000
v 0.998899 -2.897457 -0.897002
v 0.998899 -1.100142 -0.897001
v 0.897557 -0.998799 -0.897001
v 0.948161 -1.012338 -0.897001
v 0.946020 -1.025490 -0.945464
v 0.897557 -1.012338 -0.947605
v 0.985360 -1.049537 -0.897001
v 0.972209 -1.051679 -0.945464
v 0.985360 -1.100142 -0.947605
v 0.948161 -1.100142 -0.984804
v 0.946020 -1.051679 -0.971653
v 0.897557 -1.100142 -0.998343
v 0.897557 -1.049537 -0.984804
v 0.897557 -2.998799 -0.897002
v 0.897557 -2.985260 -0.947605
v 0.946020 -2.972109 -0.945464
v 0.948161 -2.985260 -0.897002
v 0.897557 -2.948061 -0.984804
v 0.946020 -2.945920 -0.971653
v 0.897557 -2.897457 -0.998343
v 0.948161 -2.897457 -0.984804
v 0.985360 -2.897457 -0.947605
v 0.972209 -2.945920 -0.945464
v 0.985360 -2.948061 -0.897002
v 0.000000 -0.998799 -0.897001
v 0.000000 -1.012338 -0.947605
v 0.000000 -1.049537 -0.984804
v 0.000000 -1.100142 -0.998343
v 0.000000 -2.948061 -0.984804
v 0.000000 -2.897457 -0.998343
v 0.000000 -2.985260 -0.947605
v 0.000000 -2.998799 -0.897002
v -0.998899 -1.100142 -0.897001
v -0.998899 -2.897457 -0.897002
v -0.897557 -0.998799 -0.897001
v -0.897557 -1.012338 -0.947605
v -0.946020 -1.025490 -0.945464
v -0.948161 -1.012338 -0.897001
v -0.972209 -1.051679 -0.945464
v -0.985360 -1.049537 -0.897001
v -0.985360 -1.100142 -0.947605
v -0.946020 -1.051679 -0.971653
v -0.948161 -1.100142 -0.984804
v -0.897557 -1.100142 -0.998343
v -0.897557 -1.049537 -0.984804
v -0.897557 -2.998799 -0.897002
v -0.948161 -2.985260 -0.897002
v -0.946020 -2.972109 -0.945464
v -0.897557 -2.985260 -0.947605
v -0.946020 -2.945920 -0.971653
v -0.897557 -2.948061 -0.984804
v -0.897557 -2.897457 -0.998343
v -0.948161 -2.897457 -0.984804
v -0.972209 -2.945920 -0.945464
v -0.985360 -2.897457 -0.947605
v -0.985360 -2.948061 -0.897002
vt 0.694176 0.513344
vt 0.694176 0.503095
vt 0.694176 0.513344
vt 0.693598 0.513845
vt 0.693886 0.513845
vt 0.693598 0.513922
vt 0.693874 0.513770
vt 0.694098 0.513633
vt 0.694098 0.513344
vt 0.694023 0.513621
vt 0.693886 0.513344
vt 0.693598 0.513633
vt 0.693598 0.513344
vt 0.693874 0.513621
vt 0.693886 0.502595
vt 0.693598 0.502595
vt 0.693598 0.502517
vt 0.693874 0.502670
vt 0.693598 0.502807
vt 0.693886 0.503095
vt 0.693598 0.503095
vt 0.694023 0.502819
vt 0.694098 0.503095
vt 0.694098 0.502807
vt 0.694176 0.503095
vt 0.693874 0.502819
vt 0.693886 0.502595
vt 0.693598 0.502517
vt 0.694098 0.502807
vt 0.688479 0.513845
vt 0.688479 0.513922
vt 0.688479 0.513633
vt 0.688479 0.513344
vt 0.693598 0.513922
vt 0.688479 0.513922
vt 0.688479 0.502807
vt 0.688479 0.502595
vt 0.688479 0.502517
vt 0.878941 0.237652
vt 0.837357 0.196093
vt 0.878941 0.196093
vt 0.694098 0.513633
vt 0.693886 0.513845
vt 0.682783 0.503095
vt 0.682783 0.513344
vt 0.682783 0.513344
vt 0.683073 0.513845
vt 0.683361 0.513845
vt 0.683361 0.513922
vt 0.682860 0.513633
vt 0.683085 0.513770
vt 0.682860 0.513344
vt 0.683073 0.513344
vt 0.682935 0.513621
vt 0.683361 0.513633
vt 0.683361 0.513344
vt 0.683085 0.513621
vt 0.683361 0.502595
vt 0.683073 0.502595
vt 0.683361 0.502517
vt 0.683361 0.502807
vt 0.683085 0.502670
vt 0.683073 0.503095
vt 0.683361 0.503095
vt 0.682935 0.502819
vt 0.683085 0.502819
vt 0.682860 0.502807
vt 0.682860 0.503095
vt 0.682783 0.503095
vt 0.683073 0.502595
vt 0.683361 0.502517
vt 0.682860 0.502807
vt 0.683361 0.513922
vt 0.795772 0.237652
vt 0.795772 0.196093
vt 0.682860 0.513633
vt 0.683073 0.513845
vt 0.694176 0.513344
vt 0.693886 0.513845
vt 0.693598 0.513845
vt 0.693598 0.513922
vt 0.694098 0.513633
vt 0.693874 0.513770
vt 0.694098 0.513344
vt 0.693886 0.513344
vt 0.694023 0.513621
vt 0.693598 0.513633
vt 0.693598 0.513344
vt 0.693874 0.513621
vt 0.693598 0.502595
vt 0.693886 0.502595
vt 0.693598 0.502517
vt 0.693598 0.502807
vt 0.693874 0.502670
vt 0.693886 0.503095
vt 0.693598 0.503095
vt 0.694023 0.502819
vt 0.693874 0.502819
vt 0.694098 0.502807
vt 0.694098 0.503095
vt 0.694176 0.503095
vt 0.688479 0.513845
vt 0.688479 0.513922
vt 0.688479 0.513633
vt 0.688479 0.513344
vt 0.688479 0.502807
vt 0.688479 0.502595
vt 0.688479 0.502517
vt 0.878941 0.154534
vt 0.682783 0.513344
vt 0.683361 0.513845
vt 0.683073 0.513845
vt 0.683361 0.513922
vt 0.683085 0.513770
vt 0.682860 0.513633
vt 0.682860 0.513344
vt 0.682935 0.513621
vt 0.683073 0.513344
vt 0.683361 0.513633
vt 0.683361 0.513344
vt 0.683085 0.513621
vt 0.683073 0.502595
vt 0.683361 0.502595
vt 0.683361 0.502517
vt 0.683085 0.502670
vt 0.683361 0.502807
vt 0.683073 0.503095
vt 0.683361 0.503095
vt 0.682935 0.502819
vt 0.682860 0.503095
vt 0.682860 0.502807
vt 0.682783 0.503095
vt 0.683085 0.502819
vt 0.795772 0.154534
vt 0.688479 0.503095
vt 0.837357 0.237652
vt 0.688479 0.503095
vt 0.837357 0.154534
vn 0.9835 0.1280 0.1280
vn 0.9915 -0.1303 -0.0000
vn 0.9915 0.1303 0.0000
vn 0.1216 0.8623 0.4916
vn 0.4916 0.8623 0.1216
vn 0.1280 0.9835 0.1280
vn 0.4488 0.7727 0.4488
vn 0.8623 0.4916 0.1216
vn 0.8623 0.1216 0.4916
vn 0.7727 0.4488 0.4488
vn 0.4916 0.1216 0.8623
vn 0.1216 0.4916 0.8623
vn 0.1280 0.1280 0.9835
vn 0.4488 0.4488 0.7727
vn 0.4916 -0.8623 0.1216
vn 0.1216 -0.8623 0.4916
vn 0.1280 -0.9835 0.1280
vn 0.4488 -0.7727 0.4488
vn 0.1216 -0.4916 0.8623
vn 0.4916 -0.1216 0.8623
vn 0.1280 -0.1280 0.9835
vn 0.7727 -0.4488 0.4488
vn 0.8623 -0.1216 0.4916
vn 0.8623 -0.4916 0.1216
vn 0.9835 -0.1280 0.1280
vn 0.4488 -0.4488 0.7727
vn 0.4998 -0.8661 -0.0000
vn 0.1303 -0.9915 -0.0000
vn 0.8661 -0.4998 -0.0000
vn 0.0000 0.8661 0.4998
vn 0.0000 0.9915 0.1303
vn 0.0000 0.4998 0.8661
vn 0.0000 0.1303 0.9915
vn 0.1303 0.9915 0.0000
vn 0.0000 1.0000 0.0000
vn 0.0000 -0.4998 0.8661
vn 0.0000 -0.8661 0.4998
vn 0.0000 -0.9915 0.1303
vn 0.0000 -1.0000 -0.0000
vn 0.8661 0.4998 0.0000
vn 0.4998 0.8661 0.0000
vn -0.9915 -0.1303 -0.0000
vn -0.9835 0.1280 0.1280
vn -0.9915 0.1303 0.0000
vn -0.4916 0.8623 0.1216
vn -0.1216 0.8623 0.4916
vn -0.1280 0.9835 0.1280
vn -0.8623 0.4916 0.1216
vn -0.4488 0.7727 0.4488
vn -0.8623 0.1216 0.4916
vn -0.4916 0.1216 0.8623
vn -0.7727 0.4488 0.4488
vn -0.1216 0.4916 0.8623
vn -0.1280 0.1280 0.9835
vn -0.4488 0.4488 0.7727
vn -0.1216 -0.8623 0.4916
vn -0.4916 -0.8623 0.1216
vn -0.1280 -0.9835 0.1280
vn -0.1216 -0.4916 0.8623
vn -0.4488 -0.7727 0.4488
vn -0.4916 -0.1216 0.8623
vn -0.1280 -0.1280 0.9835
vn -0.7727 -0.4488 0.4488
vn -0.4488 -0.4488 0.7727
vn -0.8623 -0.4916 0.1216
vn -0.8623 -0.1216 0.4916
vn -0.9835 -0.1280 0.1280
vn -0.4998 -0.8661 -0.0000
vn -0.1303 -0.9915 -0.0000
vn -0.8661 -0.4998 -0.0000
vn -0.1303 0.9915 0.0000
vn -0.8661 0.4998 0.0000
vn -0.4998 0.8661 0.0000
vn 0.9835 0.1280 -0.1280
vn 0.4916 0.8623 -0.1216
vn 0.1216 0.8623 -0.4916
vn 0.1280 0.9835 -0.1280
vn 0.8623 0.4916 -0.1216
vn 0.4488 0.7727 -0.4488
vn 0.8623 0.1216 -0.4916
vn 0.4916 0.1216 -0.8623
vn 0.7727 0.4488 -0.4488
vn 0.1216 0.4916 -0.8623
vn 0.1280 0.1280 -0.9835
vn 0.4488 0.4488 -0.7727
vn 0.1216 -0.8623 -0.4916
vn 0.4916 -0.8623 -0.1216
vn 0.1280 -0.9835 -0.1280
vn 0.1216 -0.4916 -0.8623
vn 0.4488 -0.7727 -0.4488
vn 0.4916 -0.1216 -0.8623
vn 0.1280 -0.1280 -0.9835
vn 0.7727 -0.4488 -0.4488
vn 0.4488 -0.4488 -0.7727
vn 0.8623 -0.4916 -0.1216
vn 0.8623 -0.1216 -0.4916
vn 0.9835 -0.1280 -0.1280
vn 0.0000 0.8661 -0.4998
vn 0.0000 0.9915 -0.1303
vn 0.0000 0.4998 -0.8661
vn 0.0000 0.1303 -0.9915
vn 0.0000 -0.4998 -0.8661
vn 0.0000 -0.8661 -0.4998
vn 0.0000 -0.9915 -0.1303
vn -0.9835 0.1280 -0.1280
vn -0.1216 0.8623 -0.4916
vn -0.4916 0.8623 -0.1216
vn -0.1280 0.9835 -0.1280
vn -0.4488 0.7727 -0.4488
vn -0.8623 0.4916 -0.1216
vn -0.8623 0.1216 -0.4916
vn -0.7727 0.4488 -0.4488
vn -0.4916 0.1216 -0.8623
vn -0.1216 0.4916 -0.8623
vn -0.1280 0.1280 -0.9835
vn -0.4488 0.4488 -0.7727
vn -0.4916 -0.8623 -0.1216
vn -0.1216 -0.8623 -0.4916
vn -0.1280 -0.9835 -0.1280
vn -0.4488 -0.7727 -0.4488
vn -0.1216 -0.4916 -0.8623
vn -0.4916 -0.1216 -0.8623
vn -0.1280 -0.1280 -0.9835
vn -0.7727 -0.4488 -0.4488
vn -0.8623 -0.1216 -0.4916
vn -0.8623 -0.4916 -0.1216
vn -0.9835 -0.1280 -0.1280
vn -0.4488 -0.4488 -0.7727
vn 0.0000 -0.1303 0.9915
vn 0.0000 -0.1303 -0.9915
usemtl Rubiks_Cube
s 1
f 2/1/1 4/2/2 1/3/3
f 6/4/4 8/5/5 5/6/6
f 7/7/7 10/8/8 8/5/5
f 10/8/8 11/9/9 2/1/1
f 9/10/10 13/11/11 11/9/9
f 13/11/11 15/12/12 14/13/13
f 15/12/12 7/7/7 6/4/4
f 7/7/7 12/14/14 9/10/10
f 17/15/15 19/16/16 16/17/17
f 18/18/18 21/19/19 19/16/16
f 21/19/19 23/20/20 22/21/21
f 23/20/20 24/22/22 25/23/23
f 25/23/23 26/24/24 3/25/25
f 26/24/24 18/18/18 17/15/15
f 18/18/18 24/22/22 20/26/26
f 28/27/27 16/17/17 27/28/28
f 29/29/29 17/15/15 28/27/27
f 4/2/2 26/24/24 29/29/29
f 23/20/20 14/13/13 22/21/21
f 25/23/23 13/11/11 23/20/20
f 3/25/25 11/9/9 25/23/23
f 31/30/30 5/6/6 30/31/31
f 32/32/32 6/4/4 31/30/30
f 33/33/33 15/12/12 32/32/32
f 30/31/31 35/34/34 34/35/35
f 22/21/21 37/36/36 21/19/19
f 21/19/19 38/37/37 19/16/16
f 19/16/16 39/38/38 16/17/17
f 16/39/17 40/40/39 27/41/28
f 33/33/33 22/21/21 14/13/13
f 2/1/1 41/42/40 10/8/8
f 10/8/8 42/43/41 8/5/5
f 8/5/5 35/34/34 5/6/6
f 44/44/42 46/45/43 43/46/44
f 48/47/45 50/48/46 47/49/47
f 51/50/48 49/51/49 48/47/45
f 53/52/50 51/50/48 46/45/43
f 54/53/51 52/54/52 53/52/50
f 57/55/53 54/53/51 56/56/54
f 57/55/53 49/51/49 55/57/55
f 49/51/49 52/54/52 55/57/55
f 59/58/56 61/59/57 58/60/58
f 62/61/59 60/62/60 59/58/56
f 65/63/61 62/61/59 64/64/62
f 65/63/61 67/65/63 63/66/64
f 68/67/65 66/68/66 45/69/67
f 61/59/57 67/65/63 68/67/65
f 60/62/60 63/66/64 67/65/63
f 58/60/58 70/70/68 69/71/69
f 61/59/57 71/72/70 70/70/68
f 68/67/65 44/44/42 71/72/70
f 56/56/54 65/63/61 64/64/62
f 54/53/51 66/68/66 65/63/61
f 53/52/50 45/69/67 66/68/66
f 47/49/47 31/30/30 30/31/31
f 50/48/46 32/32/32 31/30/30
f 57/55/53 33/33/33 32/32/32
f 72/73/71 30/31/31 34/35/35
f 37/36/36 64/64/62 62/61/59
f 38/37/37 62/61/59 59/58/56
f 39/38/38 59/58/56 58/60/58
f 40/40/39 58/74/58 69/75/69
f 64/64/62 33/33/33 56/56/54
f 73/76/72 46/45/43 51/50/48
f 74/77/73 51/50/48 48/47/45
f 72/73/71 48/47/45 47/49/47
f 4/2/2 76/78/74 1/3/3
f 78/79/75 80/80/76 77/81/77
f 81/82/78 79/83/79 78/79/75
f 83/84/80 81/82/78 76/78/74
f 84/85/81 82/86/82 83/84/80
f 87/87/83 84/85/81 86/88/84
f 87/87/83 79/83/79 85/89/85
f 79/83/79 82/86/82 85/89/85
f 89/90/86 91/91/87 88/92/88
f 92/93/89 90/94/90 89/90/86
f 95/95/91 92/93/89 94/96/92
f 95/95/91 97/97/93 93/98/94
f 98/99/95 96/100/96 75/101/97
f 98/99/95 90/94/90 97/97/93
f 90/94/90 93/98/94 97/97/93
f 88/92/88 28/27/27 27/28/28
f 91/91/87 29/29/29 28/27/27
f 98/99/95 4/2/2 29/29/29
f 86/88/84 95/95/91 94/96/92
f 84/85/81 96/100/96 95/95/91
f 83/84/80 75/101/97 96/100/96
f 77/81/77 100/102/98 99/103/99
f 80/80/76 101/104/100 100/102/98
f 87/87/83 102/105/101 101/104/100
f 35/34/34 99/103/99 34/35/35
f 103/106/102 94/96/92 92/93/89
f 105/107/103 92/93/89 89/90/86
f 106/108/104 89/90/86 88/92/88
f 40/40/39 88/109/88 27/41/28
f 94/96/92 102/105/101 86/88/84
f 41/42/40 76/78/74 81/82/78
f 42/43/41 81/82/78 78/79/75
f 35/34/34 78/79/75 77/81/77
f 107/110/105 44/44/42 43/46/44
f 110/111/106 112/112/107 109/113/108
f 111/114/109 114/115/110 112/112/107
f 114/115/110 115/116/111 107/110/105
f 113/117/112 117/118/113 115/116/111
f 117/118/113 119/119/114 118/120/115
f 119/119/114 111/114/109 110/111/106
f 111/114/109 116/121/116 113/117/112
f 121/122/117 123/123/118 120/124/119
f 122/125/120 125/126/121 123/123/118
f 125/126/121 127/127/122 126/128/123
f 127/127/122 128/129/124 129/130/125
f 129/130/125 130/131/126 108/132/127
f 130/131/126 122/125/120 121/122/117
f 122/125/120 128/129/124 124/133/128
f 70/70/68 120/124/119 69/71/69
f 71/72/70 121/122/117 70/70/68
f 44/44/42 130/131/126 71/72/70
f 127/127/122 118/120/115 126/128/123
f 129/130/125 117/118/113 127/127/122
f 108/132/127 115/116/111 129/130/125
f 100/102/98 109/113/108 99/103/99
f 101/104/100 110/111/106 100/102/98
f 102/105/101 119/119/114 101/104/100
f 99/103/99 72/73/71 34/35/35
f 126/128/123 103/106/102 125/126/121
f 125/126/121 105/107/103 123/123/118
f 123/123/118 106/108/104 120/124/119
f 120/134/119 40/40/39 69/75/69
f 102/105/101 126/128/123 118/120/115
f 107/110/105 73/76/72 114/115/110
f 114/115/110 74/77/73 112/112/107
f 112/112/107 72/73/71 109/113/108
f 2/1/1 3/25/25 4/2/2
f 6/4/4 7/7/7 8/5/5
f 7/7/7 9/10/10 10/8/8
f 10/8/8 9/10/10 11/9/9
f 9/10/10 12/14/14 13/11/11
f 13/11/11 12/14/14 15/12/12
f 15/12/12 12/14/14 7/7/7
f 17/15/15 18/18/18 19/16/16
f 18/18/18 20/26/26 21/19/19
f 21/19/19 20/26/26 23/20/20
f 23/20/20 20/26/26 24/22/22
f 25/23/23 24/22/22 26/24/24
f 26/24/24 24/22/22 18/18/18
f 28/27/27 17/15/15 16/17/17
f 29/29/29 26/24/24 17/15/15
f 4/2/2 3/25/25 26/24/24
f 23/20/20 13/11/11 14/13/13
f 25/23/23 11/9/9 13/11/11
f 3/25/25 2/1/1 11/9/9
f 31/30/30 6/4/4 5/6/6
f 32/32/32 15/12/12 6/4/4
f 33/33/33 14/13/13 15/12/12
f 30/31/31 5/6/6 35/34/34
f 22/21/21 36/135/129 37/36/36
f 21/19/19 37/36/36 38/37/37
f 19/16/16 38/37/37 39/38/38
f 16/39/17 39/136/38 40/40/39
f 33/33/33 36/135/129 22/21/21
f 2/1/1 1/3/3 41/42/40
f 10/8/8 41/42/40 42/43/41
f 8/5/5 42/43/41 35/34/34
f 44/44/42 45/69/67 46/45/43
f 48/47/45 49/51/49 50/48/46
f 51/50/48 52/54/52 49/51/49
f 53/52/50 52/54/52 51/50/48
f 54/53/51 55/57/55 52/54/52
f 57/55/53 55/57/55 54/53/51
f 57/55/53 50/48/46 49/51/49
f 59/58/56 60/62/60 61/59/57
f 62/61/59 63/66/64 60/62/60
f 65/63/61 63/66/64 62/61/59
f 65/63/61 66/68/66 67/65/63
f 68/67/65 67/65/63 66/68/66
f 61/59/57 60/62/60 67/65/63
f 58/60/58 61/59/57 70/70/68
f 61/59/57 68/67/65 71/72/70
f 68/67/65 45/69/67 44/44/42
f 56/56/54 54/53/51 65/63/61
f 54/53/51 53/52/50 66/68/66
f 53/52/50 46/45/43 45/69/67
f 47/49/47 50/48/46 31/30/30
f 50/48/46 57/55/53 32/32/32
f 57/55/53 56/56/54 33/33/33
f 72/73/71 47/49/47 30/31/31
f 37/36/36 36/135/129 64/64/62
f 38/37/37 37/36/36 62/61/59
f 39/38/38 38/37/37 59/58/56
f 40/40/39 39/136/38 58/74/58
f 64/64/62 36/135/129 33/33/33
f 73/76/72 43/46/44 46/45/43
f 74/77/73 73/76/72 51/50/48
f 72/73/71 74/77/73 48/47/45
f 4/2/2 75/101/97 76/78/74
f 78/79/75 79/83/79 80/80/76
f 81/82/78 82/86/82 79/83/79
f 83/84/80 82/86/82 81/82/78
f 84/85/81 85/89/85 82/86/82
f 87/87/83 85/89/85 84/85/81
f 87/87/83 80/80/76 79/83/79
f 89/90/86 90/94/90 91/91/87
f 92/93/89 93/98/94 90/94/90
f 95/95/91 93/98/94 92/93/89
f 95/95/91 96/100/96 97/97/93
f 98/99/95 97/97/93 96/100/96
f 98/99/95 91/91/87 90/94/90
f 88/92/88 91/91/87 28/27/27
f 91/91/87 98/99/95 29/29/29
f 98/99/95 75/101/97 4/2/2
f 86/88/84 84/85/81 95/95/91
f 84/85/81 83/84/80 96/100/96
f 83/84/80 76/78/74 75/101/97
f 77/81/77 80/80/76 100/102/98
f 80/80/76 87/87/83 101/104/100
f 87/87/83 86/88/84 102/105/101
f 35/34/34 77/81/77 99/103/99
f 103/106/102 104/137/130 94/96/92
f 105/107/103 103/106/102 92/93/89
f 106/108/104 105/107/103 89/90/86
f 40/40/39 106/138/104 88/109/88
f 94/96/92 104/137/130 102/105/101
f 41/42/40 1/3/3 76/78/74
f 42/43/41 41/42/40 81/82/78
f 35/34/34 42/43/41 78/79/75
f 107/110/105 108/132/127 44/44/42
f 110/111/106 111/114/109 112/112/107
f 111/114/109 113/117/112 114/115/110
f 114/115/110 113/117/112 115/116/111
f 113/117/112 116/121/116 117/118/113
f 117/118/113 116/121/116 119/119/114
f 119/119/114 116/121/116 111/114/109
f 121/122/117 122/125/120 123/123/118
f 122/125/120 124/133/128 125/126/121
f 125/126/121 124/133/128 127/127/122
f 127/127/122 124/133/128 128/129/124
f 129/130/125 128/129/124 130/131/126
f 130/131/126 128/129/124 122/125/120
f 70/70/68 121/122/117 120/124/119
f 71/72/70 130/131/126 121/122/117
f 44/44/42 108/132/127 130/131/126
f 127/127/122 117/118/113 118/120/115
f 129/130/125 115/116/111 117/118/113
f 108/132/127 107/110/105 115/116/111
f 100/102/98 110/111/106 109/113/108
f 101/104/100 119/119/114 110/111/106
f 102/105/101 118/120/115 119/119/114
f 99/103/99 109/113/108 72/73/71
f 126/128/123 104/137/130 103/106/102
f 125/126/121 103/106/102 105/107/103
f 123/123/118 105/107/103 106/108/104
f 120/134/119 106/138/104 40/40/39
f 102/105/101 104/137/130 126/128/123
f 107/110/105 43/46/44 73/76/72
f 114/115/110 73/76/72 74/77/73
f 112/112/107 74/77/73 72/73/71
