# Blender v2.90.0 OBJ File: 'Cube11.blend'
# www.blender.org
mtllib Cube11.mtl
o Rubiks_Cube_Cube.006
v 0.998899 1.100142 0.000000
v 0.998899 2.897457 0.000000
v 0.998899 2.897457 0.897002
v 0.998899 1.100142 0.897001
v 0.897557 0.998799 0.897001
v 0.948161 1.012338 0.897001
v 0.946020 1.025490 0.945464
v 0.897557 1.012338 0.947605
v 0.985360 1.049537 0.897001
v 0.972209 1.051679 0.945464
v 0.985360 1.100142 0.947605
v 0.948161 1.100142 0.984804
v 0.946020 1.051679 0.971653
v 0.897557 1.100142 0.998343
v 0.897557 1.049537 0.984804
v 0.897557 2.998799 0.897002
v 0.897557 2.985260 0.947605
v 0.946020 2.972109 0.945464
v 0.948161 2.985260 0.897002
v 0.897557 2.948061 0.984804
v 0.946020 2.945920 0.971653
v 0.897557 2.897457 0.998343
v 0.948161 2.897457 0.984804
v 0.985360 2.897457 0.947605
v 0.972209 2.945920 0.945464
v 0.985360 2.948061 0.897002
v 0.897557 2.998799 0.000000
v 0.948161 2.985260 0.000000
v 0.985360 2.948061 0.000000
v 0.000000 0.998799 0.897001
v 0.000000 1.012338 0.947605
v 0.000000 1.049537 0.984804
v 0.000000 1.100142 0.998343
v 0.000000 0.998799 0.000000
v 0.897557 0.998799 0.000000
v 0.000000 2.948061 0.984804
v 0.000000 2.897457 0.998343
v 0.000000 2.985260 0.947605
v 0.000000 2.998799 0.897002
v 0.000000 2.998799 0.000000
v 0.985360 1.049537 0.000000
v 0.948161 1.012338 0.000000
v -0.998899 1.100142 0.000000
v -0.998899 1.100142 0.897001
v -0.998899 2.897457 0.897002
v -0.998899 2.897457 0.000000
v -0.897557 0.998799 0.897001
v -0.897557 1.012338 0.947605
v -0.946020 1.025490 0.945464
v -0.948161 1.012338 0.897001
v -0.972209 1.051679 0.945464
v -0.985360 1.049537 0.897001
v -0.985360 1.100142 0.947605
v -0.946020 1.051679 0.971653
v -0.948161 1.100142 0.984804
v -0.897557 1.100142 0.998343
v -0.897557 1.049537 0.984804
v -0.897557 2.998799 0.897002
v -0.948161 2.985260 0.897002
v -0.946020 2.972109 0.945464
v -0.897557 2.985260 0.947605
v -0.946020 2.945920 0.971653
v -0.897557 2.948061 0.984804
v -0.897557 2.897457 0.998343
v -0.948161 2.897457 0.984804
v -0.972209 2.945920 0.945464
v -0.985360 2.897457 0.947605
v -0.985360 2.948061 0.897002
v -0.897557 2.998799 0.000000
v -0.948161 2.985260 0.000000
v -0.985360 2.948061 0.000000
v -0.897557 0.998799 0.000000
v -0.985360 1.049537 0.000000
v -0.948161 1.012338 0.000000
v 0.998899 1.100142 -0.897001
v 0.998899 2.897457 -0.897001
v 0.897557 0.998799 -0.897001
v 0.897557 1.012338 -0.947605
v 0.946020 1.025490 -0.945464
v 0.948161 1.012338 -0.897001
v 0.972209 1.051679 -0.945464
v 0.985360 1.049537 -0.897001
v 0.985360 1.100142 -0.947605
v 0.946020 1.051679 -0.971653
v 0.948161 1.100142 -0.984804
v 0.897557 1.100142 -0.998343
v 0.897557 1.049537 -0.984804
v 0.897557 2.998799 -0.897001
v 0.948161 2.985260 -0.897001
v 0.946020 2.972109 -0.945464
v 0.897557 2.985260 -0.947605
v 0.946020 2.945920 -0.971653
v 0.897557 2.948061 -0.984803
v 0.897557 2.897457 -0.998343
v 0.948161 2.897457 -0.984803
v 0.972209 2.945920 -0.945464
v 0.985360 2.897457 -0.947605
v 0.985360 2.948061 -0.897001
v 0.000000 0.998799 -0.897001
v 0.000000 1.012338 -0.947605
v 0.000000 1.049537 -0.984804
v 0.000000 1.100142 -0.998343
v 0.000000 2.897457 -0.998343
v 0.000000 2.948061 -0.984803
v 0.000000 2.985260 -0.947605
v 0.000000 2.998799 -0.897001
v -0.998899 2.897457 -0.897001
v -0.998899 1.100142 -0.897001
v -0.897557 0.998799 -0.897001
v -0.948161 1.012338 -0.897001
v -0.946020 1.025490 -0.945464
v -0.897557 1.012338 -0.947605
v -0.985360 1.049537 -0.897001
v -0.972209 1.051679 -0.945464
v -0.985360 1.100142 -0.947605
v -0.948161 1.100142 -0.984804
v -0.946020 1.051679 -0.971653
v -0.897557 1.100142 -0.998343
v -0.897557 1.049537 -0.984804
v -0.897557 2.998799 -0.897001
v -0.897557 2.985260 -0.947605
v -0.946020 2.972109 -0.945464
v -0.948161 2.985260 -0.897001
v -0.897557 2.948061 -0.984803
v -0.946020 2.945920 -0.971653
v -0.897557 2.897457 -0.998343
v -0.948161 2.897457 -0.984803
v -0.985360 2.897457 -0.947605
v -0.972209 2.945920 -0.945464
v -0.985360 2.948061 -0.897001
vt 0.694176 0.536141
vt 0.694176 0.525891
vt 0.694176 0.525891
vt 0.693886 0.525391
vt 0.693598 0.525391
vt 0.693598 0.525314
vt 0.694098 0.525603
vt 0.693874 0.525466
vt 0.694098 0.525891
vt 0.693886 0.525891
vt 0.694023 0.525615
vt 0.693598 0.525603
vt 0.693598 0.525891
vt 0.693874 0.525615
vt 0.693598 0.536641
vt 0.693886 0.536641
vt 0.693598 0.536718
vt 0.693598 0.536429
vt 0.693874 0.536566
vt 0.693886 0.536141
vt 0.693598 0.536141
vt 0.694023 0.536417
vt 0.693874 0.536417
vt 0.694098 0.536429
vt 0.694098 0.536141
vt 0.694176 0.536141
vt 0.693886 0.536641
vt 0.693598 0.536718
vt 0.694098 0.536429
vt 0.688479 0.525391
vt 0.688479 0.525314
vt 0.688479 0.525603
vt 0.688479 0.525891
vt 0.693598 0.525314
vt 0.688479 0.525314
vt 0.688479 0.536429
vt 0.688479 0.536641
vt 0.688479 0.536718
vt 0.502690 0.213319
vt 0.544275 0.171760
vt 0.544275 0.213319
vt 0.694098 0.525603
vt 0.693886 0.525391
vt 0.682783 0.525891
vt 0.682783 0.536141
vt 0.682783 0.525891
vt 0.683361 0.525391
vt 0.683073 0.525391
vt 0.683361 0.525314
vt 0.683085 0.525466
vt 0.682860 0.525603
vt 0.682860 0.525891
vt 0.682935 0.525615
vt 0.683073 0.525891
vt 0.683361 0.525603
vt 0.683361 0.525891
vt 0.683085 0.525615
vt 0.683073 0.536641
vt 0.683361 0.536641
vt 0.683361 0.536718
vt 0.683085 0.536566
vt 0.683361 0.536429
vt 0.683073 0.536141
vt 0.683361 0.536141
vt 0.682935 0.536417
vt 0.682860 0.536141
vt 0.682860 0.536429
vt 0.682783 0.536141
vt 0.683085 0.536417
vt 0.683073 0.536641
vt 0.683361 0.536718
vt 0.682860 0.536429
vt 0.683361 0.525314
vt 0.461106 0.171760
vt 0.461106 0.213319
vt 0.682860 0.525603
vt 0.683073 0.525391
vt 0.694176 0.525891
vt 0.693598 0.525391
vt 0.693886 0.525391
vt 0.693598 0.525314
vt 0.693874 0.525466
vt 0.694098 0.525603
vt 0.694098 0.525891
vt 0.694023 0.525615
vt 0.693886 0.525891
vt 0.693598 0.525603
vt 0.693598 0.525891
vt 0.693874 0.525615
vt 0.693886 0.536641
vt 0.693598 0.536641
vt 0.693598 0.536718
vt 0.693874 0.536566
vt 0.693598 0.536429
vt 0.693886 0.536141
vt 0.693598 0.536141
vt 0.694023 0.536417
vt 0.694098 0.536141
vt 0.694098 0.536429
vt 0.694176 0.536141
vt 0.693874 0.536417
vt 0.688479 0.525391
vt 0.688479 0.525314
vt 0.688479 0.525603
vt 0.688479 0.525891
vt 0.688479 0.536429
vt 0.688479 0.536641
vt 0.688479 0.536718
vt 0.544275 0.254878
vt 0.682783 0.525891
vt 0.683073 0.525391
vt 0.683361 0.525391
vt 0.683361 0.525314
vt 0.682860 0.525603
vt 0.683085 0.525466
vt 0.682860 0.525891
vt 0.683073 0.525891
vt 0.682935 0.525615
vt 0.683361 0.525603
vt 0.683361 0.525891
vt 0.683085 0.525615
vt 0.683361 0.536641
vt 0.683073 0.536641
vt 0.683361 0.536718
vt 0.683361 0.536429
vt 0.683085 0.536566
vt 0.683073 0.536141
vt 0.683361 0.536141
vt 0.682935 0.536417
vt 0.683085 0.536417
vt 0.682860 0.536429
vt 0.682860 0.536141
vt 0.682783 0.536141
vt 0.461106 0.254878
vt 0.688479 0.536141
vt 0.502690 0.171760
vt 0.688479 0.536141
vt 0.502690 0.254878
vn 0.9915 0.1303 0.0000
vn 0.9835 -0.1280 0.1280
vn 0.9915 -0.1303 -0.0000
vn 0.4916 -0.8623 0.1216
vn 0.1216 -0.8623 0.4916
vn 0.1280 -0.9835 0.1280
vn 0.8623 -0.4916 0.1216
vn 0.4488 -0.7727 0.4488
vn 0.8623 -0.1216 0.4916
vn 0.4916 -0.1216 0.8623
vn 0.7727 -0.4488 0.4488
vn 0.1216 -0.4916 0.8623
vn 0.1280 -0.1280 0.9835
vn 0.4488 -0.4488 0.7727
vn 0.1216 0.8623 0.4916
vn 0.4916 0.8623 0.1216
vn 0.1280 0.9835 0.1280
vn 0.1216 0.4916 0.8623
vn 0.4488 0.7727 0.4488
vn 0.4916 0.1216 0.8623
vn 0.1280 0.1280 0.9835
vn 0.7727 0.4488 0.4488
vn 0.4488 0.4488 0.7727
vn 0.8623 0.4916 0.1216
vn 0.8623 0.1216 0.4916
vn 0.9835 0.1280 0.1280
vn 0.4998 0.8661 0.0000
vn 0.1303 0.9915 0.0000
vn 0.8661 0.4998 0.0000
vn 0.0000 -0.8661 0.4998
vn 0.0000 -0.9915 0.1303
vn 0.0000 -0.4998 0.8661
vn 0.0000 -0.1303 0.9915
vn 0.1303 -0.9915 -0.0000
vn 0.0000 -1.0000 -0.0000
vn 0.0000 0.4998 0.8661
vn 0.0000 0.8661 0.4998
vn 0.0000 0.9915 0.1303
vn 0.0000 1.0000 0.0000
vn 0.8661 -0.4998 -0.0000
vn 0.4998 -0.8661 -0.0000
vn -0.9835 -0.1280 0.1280
vn -0.9915 0.1303 0.0000
vn -0.9915 -0.1303 -0.0000
vn -0.1216 -0.8623 0.4916
vn -0.4916 -0.8623 0.1216
vn -0.1280 -0.9835 0.1280
vn -0.4488 -0.7727 0.4488
vn -0.8623 -0.4916 0.1216
vn -0.8623 -0.1216 0.4916
vn -0.7727 -0.4488 0.4488
vn -0.4916 -0.1216 0.8623
vn -0.1216 -0.4916 0.8623
vn -0.1280 -0.1280 0.9835
vn -0.4488 -0.4488 0.7727
vn -0.4916 0.8623 0.1216
vn -0.1216 0.8623 0.4916
vn -0.1280 0.9835 0.1280
vn -0.4488 0.7727 0.4488
vn -0.1216 0.4916 0.8623
vn -0.4916 0.1216 0.8623
vn -0.1280 0.1280 0.9835
vn -0.7727 0.4488 0.4488
vn -0.8623 0.1216 0.4916
vn -0.8623 0.4916 0.1216
vn -0.9835 0.1280 0.1280
vn -0.4488 0.4488 0.7727
vn -0.4998 0.8661 0.0000
vn -0.1303 0.9915 0.0000
vn -0.8661 0.4998 0.0000
vn -0.1303 -0.9915 -0.0000
vn -0.8661 -0.4998 -0.0000
vn -0.4998 -0.8661 -0.0000
vn 0.9835 -0.1280 -0.1280
vn 0.1216 -0.8623 -0.4916
vn 0.4916 -0.8623 -0.1216
vn 0.1280 -0.9835 -0.1280
vn 0.4488 -0.7727 -0.4488
vn 0.8623 -0.4916 -0.1216
vn 0.8623 -0.1216 -0.4916
vn 0.7727 -0.4488 -0.4488
vn 0.4916 -0.1216 -0.8623
vn 0.1216 -0.4916 -0.8623
vn 0.1280 -0.1280 -0.9835
vn 0.4488 -0.4488 -0.7727
vn 0.4916 0.8623 -0.1216
vn 0.1216 0.8623 -0.4916
vn 0.1280 0.9835 -0.1280
vn 0.4488 0.7727 -0.4488
vn 0.1216 0.4916 -0.8623
vn 0.4916 0.1216 -0.8623
vn 0.1280 0.1280 -0.9835
vn 0.7727 0.4488 -0.4488
vn 0.8623 0.1216 -0.4916
vn 0.8623 0.4916 -0.1216
vn 0.9835 0.1280 -0.1280
vn 0.4488 0.4488 -0.7727
vn 0.0000 -0.8661 -0.4998
vn 0.0000 -0.9915 -0.1303
vn 0.0000 -0.4998 -0.8661
vn 0.0000 -0.1303 -0.9915
vn 0.0000 0.4998 -0.8661
vn 0.0000 0.8661 -0.4998
vn 0.0000 0.9915 -0.1303
vn -0.9835 -0.1280 -0.1280
vn -0.4916 -0.8623 -0.1216
vn -0.1216 -0.8623 -0.4916
vn -0.1280 -0.9835 -0.1280
vn -0.8623 -0.4916 -0.1216
vn -0.4488 -0.7727 -0.4488
vn -0.8623 -0.1216 -0.4916
vn -0.4916 -0.1216 -0.8623
vn -0.7727 -0.4488 -0.4488
vn -0.1216 -0.4916 -0.8623
vn -0.1280 -0.1280 -0.9835
vn -0.4488 -0.4488 -0.7727
vn -0.1216 0.8623 -0.4916
vn -0.4916 0.8623 -0.1216
vn -0.1280 0.9835 -0.1280
vn -0.1216 0.4916 -0.8623
vn -0.4488 0.7727 -0.4488
vn -0.4916 0.1216 -0.8623
vn -0.1280 0.1280 -0.9835
vn -0.7727 0.4488 -0.4488
vn -0.4488 0.4488 -0.7727
vn -0.8623 0.4916 -0.1216
vn -0.8623 0.1216 -0.4916
vn -0.9835 0.1280 -0.1280
vn 0.0000 0.1303 0.9915
vn 0.0000 0.1303 -0.9915
usemtl Rubiks_Cube
s 1
f 2/1/1 4/2/2 1/3/3
f 6/4/4 8/5/5 5/6/6
f 9/7/7 7/8/8 6/4/4
f 11/9/9 9/7/7 4/2/2
f 12/10/10 10/11/11 11/9/9
f 15/12/12 12/10/10 14/13/13
f 15/12/12 7/8/8 13/14/14
f 7/8/8 10/11/11 13/14/14
f 17/15/15 19/16/16 16/17/17
f 20/18/18 18/19/19 17/15/15
f 23/20/20 20/18/18 22/21/21
f 23/20/20 25/22/22 21/23/23
f 26/24/24 24/25/25 3/26/26
f 26/24/24 18/19/19 25/22/22
f 18/19/19 21/23/23 25/22/22
f 16/17/17 28/27/27 27/28/28
f 19/16/16 29/29/29 28/27/27
f 26/24/24 2/1/1 29/29/29
f 14/13/13 23/20/20 22/21/21
f 12/10/10 24/25/25 23/20/20
f 11/9/9 3/26/26 24/25/25
f 5/6/6 31/30/30 30/31/31
f 8/5/5 32/32/32 31/30/30
f 15/12/12 33/33/33 32/32/32
f 35/34/34 30/31/31 34/35/35
f 36/36/36 22/21/21 20/18/18
f 38/37/37 20/18/18 17/15/15
f 39/38/38 17/15/15 16/17/17
f 40/39/39 16/40/17 27/41/28
f 22/21/21 33/33/33 14/13/13
f 41/42/40 4/2/2 9/7/7
f 42/43/41 9/7/7 6/4/4
f 35/34/34 6/4/4 5/6/6
f 44/44/42 46/45/43 43/46/44
f 48/47/45 50/48/46 47/49/47
f 49/50/48 52/51/49 50/48/46
f 52/51/49 53/52/50 44/44/42
f 51/53/51 55/54/52 53/52/50
f 55/54/52 57/55/53 56/56/54
f 57/55/53 49/50/48 48/47/45
f 49/50/48 54/57/55 51/53/51
f 59/58/56 61/59/57 58/60/58
f 60/61/59 63/62/60 61/59/57
f 63/62/60 65/63/61 64/64/62
f 65/63/61 66/65/63 67/66/64
f 67/66/64 68/67/65 45/68/66
f 68/67/65 60/61/59 59/58/56
f 60/61/59 66/65/63 62/69/67
f 70/70/68 58/60/58 69/71/69
f 71/72/70 59/58/56 70/70/68
f 46/45/43 68/67/65 71/72/70
f 65/63/61 56/56/54 64/64/62
f 67/66/64 55/54/52 65/63/61
f 45/68/66 53/52/50 67/66/64
f 31/30/30 47/49/47 30/31/31
f 32/32/32 48/47/45 31/30/30
f 33/33/33 57/55/53 32/32/32
f 30/31/31 72/73/71 34/35/35
f 64/64/62 36/36/36 63/62/60
f 63/62/60 38/37/37 61/59/57
f 61/59/57 39/38/38 58/60/58
f 58/74/58 40/39/39 69/75/69
f 33/33/33 64/64/62 56/56/54
f 44/44/42 73/76/72 52/51/49
f 52/51/49 74/77/73 50/48/46
f 50/48/46 72/73/71 47/49/47
f 75/78/74 2/1/1 1/3/3
f 78/79/75 80/80/76 77/81/77
f 79/82/78 82/83/79 80/80/76
f 82/83/79 83/84/80 75/78/74
f 81/85/81 85/86/82 83/84/80
f 85/86/82 87/87/83 86/88/84
f 87/87/83 79/82/78 78/79/75
f 79/82/78 84/89/85 81/85/81
f 89/90/86 91/91/87 88/92/88
f 90/93/89 93/94/90 91/91/87
f 93/94/90 95/95/91 94/96/92
f 95/95/91 96/97/93 97/98/94
f 97/98/94 98/99/95 76/100/96
f 98/99/95 90/93/89 89/90/86
f 90/93/89 96/97/93 92/101/97
f 28/27/27 88/92/88 27/28/28
f 29/29/29 89/90/86 28/27/27
f 2/1/1 98/99/95 29/29/29
f 95/95/91 86/88/84 94/96/92
f 97/98/94 85/86/82 95/95/91
f 76/100/96 83/84/80 97/98/94
f 100/102/98 77/81/77 99/103/99
f 101/104/100 78/79/75 100/102/98
f 102/105/101 87/87/83 101/104/100
f 99/103/99 35/34/34 34/35/35
f 94/96/92 104/106/102 93/94/90
f 93/94/90 105/107/103 91/91/87
f 91/91/87 106/108/104 88/92/88
f 88/109/88 40/39/39 27/41/28
f 102/105/101 94/96/92 86/88/84
f 75/78/74 41/42/40 82/83/79
f 82/83/79 42/43/41 80/80/76
f 80/80/76 35/34/34 77/81/77
f 46/45/43 108/110/105 43/46/44
f 110/111/106 112/112/107 109/113/108
f 113/114/109 111/115/110 110/111/106
f 115/116/111 113/114/109 108/110/105
f 116/117/112 114/118/113 115/116/111
f 119/119/114 116/117/112 118/120/115
f 119/119/114 111/115/110 117/121/116
f 111/115/110 114/118/113 117/121/116
f 121/122/117 123/123/118 120/124/119
f 124/125/120 122/126/121 121/122/117
f 127/127/122 124/125/120 126/128/123
f 127/127/122 129/129/124 125/130/125
f 130/131/126 128/132/127 107/133/128
f 123/123/118 129/129/124 130/131/126
f 122/126/121 125/130/125 129/129/124
f 120/124/119 70/70/68 69/71/69
f 123/123/118 71/72/70 70/70/68
f 130/131/126 46/45/43 71/72/70
f 118/120/115 127/127/122 126/128/123
f 116/117/112 128/132/127 127/127/122
f 115/116/111 107/133/128 128/132/127
f 109/113/108 100/102/98 99/103/99
f 112/112/107 101/104/100 100/102/98
f 119/119/114 102/105/101 101/104/100
f 72/73/71 99/103/99 34/35/35
f 104/106/102 126/128/123 124/125/120
f 105/107/103 124/125/120 121/122/117
f 106/108/104 121/122/117 120/124/119
f 40/39/39 120/134/119 69/75/69
f 126/128/123 102/105/101 118/120/115
f 73/76/72 108/110/105 113/114/109
f 74/77/73 113/114/109 110/111/106
f 72/73/71 110/111/106 109/113/108
f 2/1/1 3/26/26 4/2/2
f 6/4/4 7/8/8 8/5/5
f 9/7/7 10/11/11 7/8/8
f 11/9/9 10/11/11 9/7/7
f 12/10/10 13/14/14 10/11/11
f 15/12/12 13/14/14 12/10/10
f 15/12/12 8/5/5 7/8/8
f 17/15/15 18/19/19 19/16/16
f 20/18/18 21/23/23 18/19/19
f 23/20/20 21/23/23 20/18/18
f 23/20/20 24/25/25 25/22/22
f 26/24/24 25/22/22 24/25/25
f 26/24/24 19/16/16 18/19/19
f 16/17/17 19/16/16 28/27/27
f 19/16/16 26/24/24 29/29/29
f 26/24/24 3/26/26 2/1/1
f 14/13/13 12/10/10 23/20/20
f 12/10/10 11/9/9 24/25/25
f 11/9/9 4/2/2 3/26/26
f 5/6/6 8/5/5 31/30/30
f 8/5/5 15/12/12 32/32/32
f 15/12/12 14/13/13 33/33/33
f 35/34/34 5/6/6 30/31/31
f 36/36/36 37/135/129 22/21/21
f 38/37/37 36/36/36 20/18/18
f 39/38/38 38/37/37 17/15/15
f 40/39/39 39/136/38 16/40/17
f 22/21/21 37/135/129 33/33/33
f 41/42/40 1/3/3 4/2/2
f 42/43/41 41/42/40 9/7/7
f 35/34/34 42/43/41 6/4/4
f 44/44/42 45/68/66 46/45/43
f 48/47/45 49/50/48 50/48/46
f 49/50/48 51/53/51 52/51/49
f 52/51/49 51/53/51 53/52/50
f 51/53/51 54/57/55 55/54/52
f 55/54/52 54/57/55 57/55/53
f 57/55/53 54/57/55 49/50/48
f 59/58/56 60/61/59 61/59/57
f 60/61/59 62/69/67 63/62/60
f 63/62/60 62/69/67 65/63/61
f 65/63/61 62/69/67 66/65/63
f 67/66/64 66/65/63 68/67/65
f 68/67/65 66/65/63 60/61/59
f 70/70/68 59/58/56 58/60/58
f 71/72/70 68/67/65 59/58/56
f 46/45/43 45/68/66 68/67/65
f 65/63/61 55/54/52 56/56/54
f 67/66/64 53/52/50 55/54/52
f 45/68/66 44/44/42 53/52/50
f 31/30/30 48/47/45 47/49/47
f 32/32/32 57/55/53 48/47/45
f 33/33/33 56/56/54 57/55/53
f 30/31/31 47/49/47 72/73/71
f 64/64/62 37/135/129 36/36/36
f 63/62/60 36/36/36 38/37/37
f 61/59/57 38/37/37 39/38/38
f 58/74/58 39/136/38 40/39/39
f 33/33/33 37/135/129 64/64/62
f 44/44/42 43/46/44 73/76/72
f 52/51/49 73/76/72 74/77/73
f 50/48/46 74/77/73 72/73/71
f 75/78/74 76/100/96 2/1/1
f 78/79/75 79/82/78 80/80/76
f 79/82/78 81/85/81 82/83/79
f 82/83/79 81/85/81 83/84/80
f 81/85/81 84/89/85 85/86/82
f 85/86/82 84/89/85 87/87/83
f 87/87/83 84/89/85 79/82/78
f 89/90/86 90/93/89 91/91/87
f 90/93/89 92/101/97 93/94/90
f 93/94/90 92/101/97 95/95/91
f 95/95/91 92/101/97 96/97/93
f 97/98/94 96/97/93 98/99/95
f 98/99/95 96/97/93 90/93/89
f 28/27/27 89/90/86 88/92/88
f 29/29/29 98/99/95 89/90/86
f 2/1/1 76/100/96 98/99/95
f 95/95/91 85/86/82 86/88/84
f 97/98/94 83/84/80 85/86/82
f 76/100/96 75/78/74 83/84/80
f 100/102/98 78/79/75 77/81/77
f 101/104/100 87/87/83 78/79/75
f 102/105/101 86/88/84 87/87/83
f 99/103/99 77/81/77 35/34/34
f 94/96/92 103/137/130 104/106/102
f 93/94/90 104/106/102 105/107/103
f 91/91/87 105/107/103 106/108/104
f 88/109/88 106/138/104 40/39/39
f 102/105/101 103/137/130 94/96/92
f 75/78/74 1/3/3 41/42/40
f 82/83/79 41/42/40 42/43/41
f 80/80/76 42/43/41 35/34/34
f 46/45/43 107/133/128 108/110/105
f 110/111/106 111/115/110 112/112/107
f 113/114/109 114/118/113 111/115/110
f 115/116/111 114/118/113 113/114/109
f 116/117/112 117/121/116 114/118/113
f 119/119/114 117/121/116 116/117/112
f 119/119/114 112/112/107 111/115/110
f 121/122/117 122/126/121 123/123/118
f 124/125/120 125/130/125 122/126/121
f 127/127/122 125/130/125 124/125/120
f 127/127/122 128/132/127 129/129/124
f 130/131/126 129/129/124 128/132/127
f 123/123/118 122/126/121 129/129/124
f 120/124/119 123/123/118 70/70/68
f 123/123/118 130/131/126 71/72/70
f 130/131/126 107/133/128 46/45/43
f 118/120/115 116/117/112 127/127/122
f 116/117/112 115/116/111 128/132/127
f 115/116/111 108/110/105 107/133/128
f 109/113/108 112/112/107 100/102/98
f 112/112/107 119/119/114 101/104/100
f 119/119/114 118/120/115 102/105/101
f 72/73/71 109/113/108 99/103/99
f 104/106/102 103/137/130 126/128/123
f 105/107/103 104/106/102 124/125/120
f 106/108/104 105/107/103 121/122/117
f 40/39/39 106/138/104 120/134/119
f 126/128/123 103/137/130 102/105/101
f 73/76/72 43/46/44 108/110/105
f 74/77/73 73/76/72 113/114/109
f 72/73/71 74/77/73 110/111/106
