# Blender v2.90.0 OBJ File: 'Cube22_M.blend'
# www.blender.org
mtllib Cube22_M.mtl
o Rubiks_Cube_Cube.018
v -2.986461 0.947865 -1.101342
v -2.986461 0.947865 -2.898658
v -3.000000 0.897260 -2.898658
v -3.000000 0.897260 -1.101342
v -2.986461 0.897260 -1.050738
v -2.986461 0.000000 -1.050738
v -2.949262 0.000000 -1.013539
v -2.949262 0.897260 -1.013539
v -2.986461 0.897260 -2.949262
v -2.986461 0.000000 -2.949262
v -3.000000 0.000000 -2.898658
v -1.050738 0.897260 -1.013539
v -1.050738 0.000000 -1.013539
v -1.013539 0.000000 -1.050738
v -1.013539 0.897260 -1.050738
v -2.898658 0.947865 -2.986461
v -1.101342 0.947865 -2.986461
v -1.101342 0.897260 -3.000000
v -2.898658 0.897260 -3.000000
v -2.949262 0.985064 -1.101342
v -2.949262 0.985065 -2.898658
v -2.898658 0.998603 -1.101342
v -2.898658 0.998603 -2.898658
v -1.101342 0.998603 -1.101342
v -2.898658 0.985064 -1.050738
v -1.101342 0.985064 -1.050738
v -2.949262 0.897260 -2.986461
v -2.949262 0.000000 -2.986461
v -1.101342 0.998603 -2.898658
v -1.101342 0.985065 -2.949262
v -2.898658 0.985065 -2.949262
v -3.000000 0.000000 -1.101342
v -2.898658 0.000000 -1.000000
v -2.898658 0.897260 -1.000000
v -2.898658 0.000000 -3.000000
v -1.000000 0.000000 -1.101342
v -1.000000 0.897260 -1.101342
v -2.898658 0.947865 -1.013539
v -2.947121 0.971912 -1.052879
v -2.947121 0.945723 -1.026690
v -2.973310 0.945723 -2.947121
v -1.013539 0.947865 -2.898658
v -1.013539 0.947865 -1.101342
v -1.000000 0.897260 -2.898658
v -1.050738 0.000000 -2.986461
v -1.050738 0.897260 -2.986461
v -1.013539 0.897260 -2.949262
v -1.013539 0.000000 -2.949262
v -2.973310 0.945723 -1.052879
v -2.947121 0.945723 -2.973310
v -2.947121 0.971913 -2.947121
v -1.000000 0.000000 -2.898658
v -1.050738 0.985065 -2.898658
v -1.050738 0.985064 -1.101342
v -1.052879 0.971912 -1.052879
v -1.052879 0.945723 -1.026690
v -1.026690 0.945723 -1.052879
v -1.101342 0.947865 -1.013539
v -1.052879 0.945723 -2.973310
v -1.052879 0.971913 -2.947121
v -1.026690 0.945723 -2.947121
v -1.101342 0.897260 -1.000000
v -1.101342 0.000000 -3.000000
v -1.101342 0.000000 -1.000000
v -2.986461 -0.947865 -1.101342
v -3.000000 -0.897260 -1.101342
v -3.000000 -0.897260 -2.898658
v -2.986461 -0.947865 -2.898658
v -2.986461 -0.897260 -1.050738
v -2.949262 -0.897260 -1.013539
v -2.986461 -0.897260 -2.949262
v -1.050738 -0.897260 -1.013539
v -1.013539 -0.897260 -1.050738
v -2.898658 -0.947865 -2.986461
v -2.898658 -0.897260 -3.000000
v -1.101342 -0.897260 -3.000000
v -1.101342 -0.947865 -2.986461
v -2.949262 -0.985064 -1.101342
v -2.949262 -0.985064 -2.898658
v -2.898658 -0.998603 -1.101342
v -2.898658 -0.998603 -2.898658
v -1.101342 -0.998603 -1.101342
v -1.101342 -0.985064 -1.050738
v -2.898658 -0.985064 -1.050738
v -2.949262 -0.897260 -2.986461
v -2.898658 -0.985064 -2.949262
v -1.101342 -0.985064 -2.949262
v -1.101342 -0.998603 -2.898658
v -2.898658 -0.897260 -1.000000
v -1.000000 -0.897260 -1.101342
v -2.898658 -0.947865 -1.013539
v -2.947121 -0.945723 -1.026690
v -2.947121 -0.971912 -1.052879
v -2.973310 -0.945723 -2.947121
v -1.013539 -0.947865 -2.898658
v -1.000000 -0.897260 -2.898658
v -1.013539 -0.947865 -1.101342
v -1.013539 -0.897260 -2.949262
v -1.050738 -0.897260 -2.986461
v -2.973310 -0.945723 -1.052879
v -2.947121 -0.945723 -2.973310
v -2.947121 -0.971912 -2.947121
v -1.050738 -0.985064 -2.898658
v -1.050738 -0.985064 -1.101342
v -1.052879 -0.971912 -1.052879
v -1.026690 -0.945723 -1.052879
v -1.052879 -0.945723 -1.026690
v -1.101342 -0.947865 -1.013539
v -1.052879 -0.945723 -2.973310
v -1.026690 -0.945723 -2.947121
v -1.052879 -0.971912 -2.947121
v -1.101342 -0.897260 -1.000000
vt 0.671449 0.525023
vt 0.671372 0.524735
vt 0.671449 0.525023
vt 0.671449 0.519618
vt 0.671661 0.524735
vt 0.671449 0.524735
vt 0.671449 0.519618
vt 0.671372 0.524735
vt 0.671449 0.524735
vt 0.682488 0.519618
vt 0.682700 0.524735
vt 0.682488 0.524735
vt 0.682199 0.525023
vt 0.671950 0.524735
vt 0.671950 0.525023
vt 0.671661 0.525235
vt 0.671661 0.525235
vt 0.671950 0.525312
vt 0.671950 0.525312
vt 0.682199 0.525235
vt 0.682199 0.525312
vt 0.671661 0.519618
vt 0.671661 0.524735
vt 0.682199 0.525312
vt 0.671950 0.525235
vt 0.671372 0.519618
vt 0.671661 0.519618
vt 0.671950 0.524735
vt 0.671950 0.519618
vt 0.682700 0.519618
vt 0.682777 0.524735
vt 0.671950 0.525023
vt 0.671674 0.525160
vt 0.671674 0.525011
vt 0.682700 0.525023
vt 0.682777 0.524735
vt 0.682700 0.525023
vt 0.682488 0.524735
vt 0.682700 0.519618
vt 0.682488 0.519618
vt 0.671950 0.525235
vt 0.671524 0.525011
vt 0.671674 0.525011
vt 0.671674 0.525160
vt 0.671524 0.525011
vt 0.682700 0.524735
vt 0.682777 0.519618
vt 0.682488 0.525235
vt 0.682488 0.525235
vt 0.682476 0.525160
vt 0.682476 0.525011
vt 0.682625 0.525011
vt 0.682199 0.525023
vt 0.682476 0.525011
vt 0.682476 0.525160
vt 0.682625 0.525011
vt 0.682199 0.525235
vt 0.682199 0.524735
vt 0.682199 0.524735
vt 0.971195 0.886012
vt 0.887924 0.844441
vt 0.971195 0.844441
vt 0.682777 0.519618
vt 0.120459 0.258512
vt 0.037188 0.216942
vt 0.120459 0.216942
vt 0.671950 0.519618
vt 0.682199 0.519618
vt 0.682199 0.519618
vt 0.671372 0.514501
vt 0.671449 0.514213
vt 0.671449 0.514213
vt 0.671661 0.514501
vt 0.671449 0.514501
vt 0.671372 0.514501
vt 0.671449 0.514501
vt 0.682700 0.514501
vt 0.682488 0.514501
vt 0.671950 0.514501
vt 0.682199 0.514213
vt 0.671950 0.514213
vt 0.671661 0.514001
vt 0.671661 0.514001
vt 0.671950 0.513923
vt 0.671950 0.513923
vt 0.682199 0.514001
vt 0.682199 0.513923
vt 0.671661 0.514501
vt 0.671950 0.514001
vt 0.682199 0.513923
vt 0.671950 0.514501
vt 0.682777 0.514501
vt 0.671950 0.514213
vt 0.671674 0.514076
vt 0.671950 0.514001
vt 0.682777 0.514501
vt 0.682700 0.514213
vt 0.682700 0.514213
vt 0.682488 0.514501
vt 0.671524 0.514225
vt 0.671674 0.514076
vt 0.671674 0.514225
vt 0.671674 0.514225
vt 0.671524 0.514225
vt 0.682700 0.514501
vt 0.682488 0.514001
vt 0.682488 0.514001
vt 0.682476 0.514076
vt 0.682625 0.514225
vt 0.682476 0.514225
vt 0.682199 0.514213
vt 0.682476 0.514225
vt 0.682625 0.514225
vt 0.682476 0.514076
vt 0.682199 0.514001
vt 0.682199 0.514501
vt 0.682199 0.514501
vt 0.971195 0.802870
vt 0.120459 0.175371
vt 0.671372 0.519618
vt 0.887924 0.886012
vt 0.037188 0.258512
vt 0.887924 0.802870
vt 0.037188 0.175371
vn -0.8623 0.4916 -0.1216
vn -0.9835 0.1280 0.1280
vn -0.8623 0.4916 0.1216
vn -0.8661 -0.0000 0.4998
vn -0.4916 0.1216 0.8623
vn -0.8623 0.1216 0.4916
vn -0.8661 0.0000 -0.4998
vn -0.9835 0.1280 -0.1280
vn -0.8623 0.1216 -0.4916
vn 0.4998 -0.0000 0.8661
vn 0.8623 0.1216 0.4916
vn 0.4916 0.1216 0.8623
vn 0.1216 0.4916 -0.8623
vn -0.1280 0.1280 -0.9835
vn -0.1216 0.4916 -0.8623
vn -0.4916 0.8623 -0.1216
vn -0.4916 0.8623 0.1216
vn -0.1280 0.9835 -0.1280
vn -0.1280 0.9835 0.1280
vn 0.1216 0.8623 0.4916
vn 0.1280 0.9835 0.1280
vn -0.4998 0.0000 -0.8661
vn -0.4916 0.1216 -0.8623
vn 0.1280 0.9835 -0.1280
vn -0.1216 0.8623 -0.4916
vn -0.9915 -0.0000 0.1303
vn -0.4998 -0.0000 0.8661
vn -0.1280 0.1280 0.9835
vn -0.1303 0.0000 -0.9915
vn 0.8661 -0.0000 0.4998
vn 0.9835 0.1280 0.1280
vn -0.1216 0.4916 0.8623
vn -0.4488 0.7727 0.4488
vn -0.4488 0.4488 0.7727
vn 0.8623 0.4916 0.1216
vn 0.9835 0.1280 -0.1280
vn 0.8623 0.4916 -0.1216
vn 0.4916 0.1216 -0.8623
vn 0.8661 0.0000 -0.4998
vn 0.4998 0.0000 -0.8661
vn -0.1216 0.8623 0.4916
vn -0.7727 0.4488 -0.4488
vn -0.4488 0.4488 -0.7727
vn -0.4489 0.7727 -0.4489
vn -0.7727 0.4488 0.4488
vn 0.8623 0.1216 -0.4916
vn 0.9915 0.0000 -0.1303
vn 0.4916 0.8623 0.1216
vn 0.4916 0.8623 -0.1216
vn 0.4488 0.7727 0.4488
vn 0.4488 0.4488 0.7727
vn 0.7727 0.4488 0.4488
vn 0.1216 0.4916 0.8623
vn 0.4488 0.4488 -0.7727
vn 0.4489 0.7727 -0.4489
vn 0.7727 0.4488 -0.4489
vn 0.1216 0.8623 -0.4916
vn 0.1280 0.1280 0.9835
vn 0.1280 0.1280 -0.9835
vn 0.1303 0.0000 -0.9915
vn 0.9915 0.0000 0.1303
vn -0.9915 0.0000 -0.1303
vn -0.1303 -0.0000 0.9915
vn 0.1303 -0.0000 0.9915
vn -0.9835 -0.1280 0.1280
vn -0.8623 -0.4916 -0.1216
vn -0.8623 -0.4916 0.1216
vn -0.4916 -0.1216 0.8623
vn -0.8623 -0.1216 0.4916
vn -0.9835 -0.1280 -0.1280
vn -0.8623 -0.1216 -0.4916
vn 0.8623 -0.1216 0.4916
vn 0.4916 -0.1216 0.8623
vn -0.1280 -0.1280 -0.9835
vn 0.1216 -0.4916 -0.8623
vn -0.1216 -0.4916 -0.8623
vn -0.4916 -0.8623 -0.1216
vn -0.4916 -0.8623 0.1216
vn -0.1280 -0.9835 -0.1280
vn -0.1280 -0.9835 0.1280
vn 0.1216 -0.8623 0.4916
vn 0.1280 -0.9835 0.1280
vn -0.4916 -0.1216 -0.8623
vn -0.1216 -0.8623 -0.4916
vn 0.1280 -0.9835 -0.1280
vn -0.1280 -0.1280 0.9835
vn 0.9835 -0.1280 0.1280
vn -0.1216 -0.4916 0.8623
vn -0.4488 -0.7727 0.4488
vn -0.1216 -0.8623 0.4916
vn 0.9835 -0.1280 -0.1280
vn 0.8623 -0.4916 0.1216
vn 0.8623 -0.4916 -0.1216
vn 0.4916 -0.1216 -0.8623
vn -0.7727 -0.4488 -0.4488
vn -0.4488 -0.7727 -0.4488
vn -0.4488 -0.4488 -0.7727
vn -0.4488 -0.4488 0.7727
vn -0.7727 -0.4488 0.4488
vn 0.8623 -0.1216 -0.4916
vn 0.4916 -0.8623 0.1216
vn 0.4916 -0.8623 -0.1216
vn 0.4488 -0.7727 0.4488
vn 0.7727 -0.4488 0.4488
vn 0.4488 -0.4488 0.7727
vn 0.1216 -0.4916 0.8623
vn 0.4488 -0.4488 -0.7727
vn 0.7727 -0.4488 -0.4488
vn 0.4488 -0.7727 -0.4488
vn 0.1216 -0.8623 -0.4916
vn 0.1280 -0.1280 0.9835
vn 0.1280 -0.1280 -0.9835
usemtl Rubiks_Cube
s 1
f 2/1/1 4/2/2 1/3/3
f 6/4/4 8/5/5 5/6/6
f 10/7/7 3/8/8 9/9/9
f 13/10/10 15/11/11 12/12/12
f 17/13/13 19/14/14 16/15/15
f 21/16/16 1/3/3 20/17/17
f 23/18/18 20/17/17 22/19/19
f 22/19/19 26/20/20 24/21/21
f 28/22/22 9/9/9 27/23/23
f 29/24/24 31/25/25 23/18/18
f 32/26/26 5/6/6 4/2/2
f 7/27/27 34/28/28 8/5/5
f 35/29/29 27/23/23 19/14/14
f 14/30/30 37/31/31 15/11/11
f 38/32/32 39/33/33 40/34/34
f 2/1/1 9/9/9 3/8/8
f 43/35/35 44/36/36 42/37/37
f 38/32/32 8/5/5 34/28/28
f 46/38/38 48/39/39 45/40/40
f 5/6/6 1/3/3 4/2/2
f 20/17/17 25/41/41 22/19/19
f 27/23/23 41/42/42 50/43/43
f 51/44/44 50/43/43 41/42/42
f 27/23/23 16/15/15 19/14/14
f 31/25/25 21/16/16 23/18/18
f 16/15/15 51/44/44 31/25/25
f 2/1/1 51/44/44 41/42/42
f 1/3/3 39/33/33 20/17/17
f 39/33/33 49/45/45 40/34/34
f 47/46/46 52/47/47 48/39/39
f 8/5/5 49/45/45 5/6/6
f 54/48/48 42/37/37 53/49/49
f 24/21/21 53/49/49 29/24/24
f 55/50/50 56/51/51 57/52/52
f 15/11/11 56/51/51 12/12/12
f 43/35/35 15/11/11 37/31/31
f 58/53/53 55/50/50 26/20/20
f 26/20/20 54/48/48 24/21/21
f 59/54/54 60/55/55 61/56/56
f 53/49/49 30/57/57 29/24/24
f 47/46/46 59/54/54 61/56/56
f 42/37/37 60/55/55 53/49/49
f 47/46/46 42/37/37 44/36/36
f 12/12/12 58/53/53 62/58/58
f 17/13/13 46/38/38 18/59/59
f 19/60/14 63/61/60 35/62/29
f 44/36/36 36/63/61 52/47/47
f 4/64/2 11/65/62 32/66/26
f 17/13/13 60/55/55 59/54/54
f 24/21/21 23/18/18 22/19/19
f 62/58/58 33/67/63 64/68/64
f 43/35/35 55/50/50 57/52/52
f 25/41/41 58/53/53 26/20/20
f 38/32/32 62/58/58 58/53/53
f 30/57/57 16/15/15 31/25/25
f 64/68/64 12/12/12 62/58/58
f 18/59/59 45/40/40 63/69/60
f 66/70/65 68/71/66 65/72/67
f 70/73/68 6/4/4 69/74/69
f 67/75/70 10/7/7 71/76/71
f 73/77/72 13/10/10 72/78/73
f 75/79/74 77/80/75 74/81/76
f 65/72/67 79/82/77 78/83/78
f 78/83/78 81/84/79 80/85/80
f 83/86/81 80/85/80 82/87/82
f 71/76/71 28/22/22 85/88/83
f 86/89/84 88/90/85 81/84/79
f 69/74/69 32/26/26 66/70/65
f 89/91/86 7/27/27 70/73/68
f 85/88/83 35/29/29 75/79/74
f 90/92/87 14/30/30 73/77/72
f 91/93/88 93/94/89 84/95/90
f 71/76/71 68/71/66 67/75/70
f 96/96/91 97/97/92 95/98/93
f 70/73/68 91/93/88 89/91/86
f 48/39/39 99/99/94 45/40/40
f 65/72/67 69/74/69 66/70/65
f 84/95/90 78/83/78 80/85/80
f 85/88/83 94/100/95 71/76/71
f 102/101/96 94/100/95 101/102/97
f 74/81/76 85/88/83 75/79/74
f 79/82/77 86/89/84 81/84/79
f 102/101/96 74/81/76 86/89/84
f 68/71/66 102/101/96 79/82/77
f 93/94/89 65/72/67 78/83/78
f 93/94/89 92/103/98 100/104/99
f 52/47/47 98/105/100 48/39/39
f 69/74/69 92/103/98 70/73/68
f 95/98/93 104/106/101 103/107/102
f 103/107/102 82/87/82 88/90/85
f 105/108/103 106/109/104 107/110/105
f 72/78/73 106/109/104 73/77/72
f 73/77/72 97/97/92 90/92/87
f 105/108/103 108/111/106 83/86/81
f 104/106/101 83/86/81 82/87/82
f 109/112/107 110/113/108 111/114/109
f 87/115/110 103/107/102 88/90/85
f 98/105/100 109/112/107 99/99/94
f 111/114/109 95/98/93 103/107/102
f 95/98/93 98/105/100 96/96/91
f 108/111/106 72/78/73 112/116/111
f 99/99/94 77/80/75 76/117/112
f 63/61/60 75/118/74 35/62/29
f 36/63/61 96/96/91 52/47/47
f 11/65/62 66/119/65 32/66/26
f 77/80/75 111/114/109 87/115/110
f 81/84/79 82/87/82 80/85/80
f 33/67/63 112/116/111 64/68/64
f 97/97/92 105/108/103 104/106/101
f 108/111/106 84/95/90 83/86/81
f 112/116/111 91/93/88 108/111/106
f 74/81/76 87/115/110 86/89/84
f 72/78/73 64/68/64 112/116/111
f 45/40/40 76/117/112 63/69/60
f 2/1/1 3/8/8 4/2/2
f 6/4/4 7/27/27 8/5/5
f 10/7/7 11/120/62 3/8/8
f 13/10/10 14/30/30 15/11/11
f 17/13/13 18/59/59 19/14/14
f 21/16/16 2/1/1 1/3/3
f 23/18/18 21/16/16 20/17/17
f 22/19/19 25/41/41 26/20/20
f 28/22/22 10/7/7 9/9/9
f 29/24/24 30/57/57 31/25/25
f 32/26/26 6/4/4 5/6/6
f 7/27/27 33/67/63 34/28/28
f 35/29/29 28/22/22 27/23/23
f 14/30/30 36/63/61 37/31/31
f 38/32/32 25/41/41 39/33/33
f 2/1/1 41/42/42 9/9/9
f 43/35/35 37/31/31 44/36/36
f 38/32/32 40/34/34 8/5/5
f 46/38/38 47/46/46 48/39/39
f 5/6/6 49/45/45 1/3/3
f 20/17/17 39/33/33 25/41/41
f 27/23/23 9/9/9 41/42/42
f 27/23/23 50/43/43 16/15/15
f 31/25/25 51/44/44 21/16/16
f 16/15/15 50/43/43 51/44/44
f 2/1/1 21/16/16 51/44/44
f 1/3/3 49/45/45 39/33/33
f 47/46/46 44/36/36 52/47/47
f 8/5/5 40/34/34 49/45/45
f 54/48/48 43/35/35 42/37/37
f 24/21/21 54/48/48 53/49/49
f 15/11/11 57/52/52 56/51/51
f 43/35/35 57/52/52 15/11/11
f 58/53/53 56/51/51 55/50/50
f 26/20/20 55/50/50 54/48/48
f 53/49/49 60/55/55 30/57/57
f 47/46/46 46/38/38 59/54/54
f 42/37/37 61/56/56 60/55/55
f 47/46/46 61/56/56 42/37/37
f 12/12/12 56/51/51 58/53/53
f 17/13/13 59/54/54 46/38/38
f 19/60/14 18/121/59 63/61/60
f 44/36/36 37/31/31 36/63/61
f 4/64/2 3/122/8 11/65/62
f 17/13/13 30/57/57 60/55/55
f 24/21/21 29/24/24 23/18/18
f 62/58/58 34/28/28 33/67/63
f 43/35/35 54/48/48 55/50/50
f 25/41/41 38/32/32 58/53/53
f 38/32/32 34/28/28 62/58/58
f 30/57/57 17/13/13 16/15/15
f 64/68/64 13/10/10 12/12/12
f 18/59/59 46/38/38 45/40/40
f 66/70/65 67/75/70 68/71/66
f 70/73/68 7/27/27 6/4/4
f 67/75/70 11/120/62 10/7/7
f 73/77/72 14/30/30 13/10/10
f 75/79/74 76/117/112 77/80/75
f 65/72/67 68/71/66 79/82/77
f 78/83/78 79/82/77 81/84/79
f 83/86/81 84/95/90 80/85/80
f 71/76/71 10/7/7 28/22/22
f 86/89/84 87/115/110 88/90/85
f 69/74/69 6/4/4 32/26/26
f 89/91/86 33/67/63 7/27/27
f 85/88/83 28/22/22 35/29/29
f 90/92/87 36/63/61 14/30/30
f 91/93/88 92/103/98 93/94/89
f 71/76/71 94/100/95 68/71/66
f 96/96/91 90/92/87 97/97/92
f 70/73/68 92/103/98 91/93/88
f 48/39/39 98/105/100 99/99/94
f 65/72/67 100/104/99 69/74/69
f 84/95/90 93/94/89 78/83/78
f 85/88/83 101/102/97 94/100/95
f 74/81/76 101/102/97 85/88/83
f 79/82/77 102/101/96 86/89/84
f 102/101/96 101/102/97 74/81/76
f 68/71/66 94/100/95 102/101/96
f 93/94/89 100/104/99 65/72/67
f 52/47/47 96/96/91 98/105/100
f 69/74/69 100/104/99 92/103/98
f 95/98/93 97/97/92 104/106/101
f 103/107/102 104/106/101 82/87/82
f 72/78/73 107/110/105 106/109/104
f 73/77/72 106/109/104 97/97/92
f 105/108/103 107/110/105 108/111/106
f 104/106/101 105/108/103 83/86/81
f 87/115/110 111/114/109 103/107/102
f 98/105/100 110/113/108 109/112/107
f 111/114/109 110/113/108 95/98/93
f 95/98/93 110/113/108 98/105/100
f 108/111/106 107/110/105 72/78/73
f 99/99/94 109/112/107 77/80/75
f 63/61/60 76/123/112 75/118/74
f 36/63/61 90/92/87 96/96/91
f 11/65/62 67/124/70 66/119/65
f 77/80/75 109/112/107 111/114/109
f 81/84/79 88/90/85 82/87/82
f 33/67/63 89/91/86 112/116/111
f 97/97/92 106/109/104 105/108/103
f 108/111/106 91/93/88 84/95/90
f 112/116/111 89/91/86 91/93/88
f 74/81/76 77/80/75 87/115/110
f 72/78/73 13/10/10 64/68/64
f 45/40/40 99/99/94 76/117/112
